<?xml version="1.0" standalone="no"?>
<!DOCTYPE svg PUBLIC "-//W3C//DTD SVG 20010904//EN"
 "http://www.w3.org/TR/2001/REC-SVG-20010904/DTD/svg10.dtd">
<svg version="1.0" xmlns="http://www.w3.org/2000/svg"
 width="163.000000pt" height="200.000000pt" viewBox="0 0 163.000000 200.000000"
 preserveAspectRatio="xMidYMid meet">
<metadata>
Created by potrace 1.14, written by Peter Selinger 2001-2017
</metadata>
<g transform="translate(0.000000,200.000000) scale(0.100000,-0.100000)"
fill="#000000" stroke="none">
<path d="M5 1901 c0 -55 3 -103 7 -107 5 -4 8 -2 8 4 0 8 21 12 58 12 48 0 62
4 80 23 12 13 22 30 22 39 0 9 7 21 15 28 20 16 19 35 -2 71 -18 29 -37 37
-48 19 -3 -5 0 -7 9 -4 9 4 20 -5 30 -24 14 -27 13 -32 -5 -69 -31 -63 -49
-75 -110 -71 l-54 3 0 50 c1 44 3 50 25 56 24 7 24 7 3 8 -13 1 -23 7 -23 15
0 8 10 17 23 19 l22 4 -22 2 c-13 0 -23 6 -23 11 0 6 -3 10 -8 10 -4 0 -7 -45
-7 -99z"/>
<path d="M306 1979 c-8 -12 -29 -25 -48 -29 l-33 -8 32 -1 c30 -1 73 29 73 51
0 14 -8 9 -24 -13z"/>
<path d="M329 1963 c-17 -26 -34 -39 -57 -44 -47 -10 -52 -19 -6 -12 46 7 69
25 83 64 13 38 9 37 -20 -8z"/>
<path d="M585 1986 c-16 -7 -38 -11 -47 -8 -25 6 -199 -81 -228 -114 l-25 -28
28 17 c37 24 34 8 -5 -30 -30 -28 -38 -31 -96 -29 -35 2 -65 -1 -68 -5 -3 -5
19 -7 48 -5 29 3 58 0 64 -5 8 -7 29 6 67 38 30 27 77 60 105 74 l51 26 24
-26 c18 -19 23 -31 17 -46 -5 -12 -9 -14 -9 -6 -1 8 -4 12 -7 8 -3 -3 -1 -14
5 -24 8 -14 10 -14 11 -3 0 13 1 13 10 0 8 -11 9 -7 6 15 l-6 30 12 -27 c10
-25 16 -27 52 -24 30 3 43 -1 56 -16 15 -20 16 -20 17 1 1 13 -2 19 -9 15 -7
-5 -9 -1 -5 9 6 16 -12 20 -23 6 -3 -4 -13 9 -23 29 -15 30 -16 33 -2 22 8 -7
18 -10 21 -7 8 7 -55 47 -76 48 -10 0 -8 3 5 9 19 8 19 9 -2 9 -13 1 -23 -3
-23 -9 0 -5 10 -15 23 -21 40 -21 47 -44 17 -52 -18 -5 -25 3 -21 26 0 4 -2 6
-7 5 -4 -2 -20 7 -36 19 -24 20 -26 24 -11 29 12 5 13 9 5 14 -7 5 -2 10 16
14 17 5 30 3 34 -5 6 -8 9 -8 12 1 2 6 17 12 33 12 47 0 95 8 95 16 0 13 -74
11 -105 -2z m68 -3 c-7 -2 -21 -2 -30 0 -10 3 -4 5 12 5 17 0 24 -2 18 -5z
m-177 -52 c-10 -11 -29 -22 -44 -26 -14 -3 -38 -15 -53 -26 -16 -11 -30 -15
-34 -10 -6 10 8 20 85 57 56 28 68 29 46 5z m132 -96 c-3 -3 -9 2 -12 12 -6
14 -5 15 5 6 7 -7 10 -15 7 -18z m-20 -3 c2 -7 -3 -12 -12 -12 -9 0 -16 7 -16
16 0 17 22 14 28 -4z"/>
<path d="M720 1986 c7 -7 13 -7 20 0 6 6 3 10 -10 10 -13 0 -16 -4 -10 -10z"/>
<path d="M970 1986 c19 -8 55 -20 80 -27 24 -8 67 -29 95 -47 l50 -33 -35 31
c-42 37 -24 41 20 4 29 -25 30 -27 13 -43 -16 -16 -21 -15 -75 21 -32 22 -64
38 -71 37 -20 -2 -57 13 -57 23 0 5 -4 7 -9 3 -5 -3 -31 3 -58 13 -42 16 -60
17 -145 7 -53 -5 -100 -13 -103 -17 -4 -3 7 -14 25 -23 18 -9 29 -19 26 -22
-9 -9 15 -45 27 -40 7 2 21 0 32 -5 18 -8 18 -7 -2 10 l-21 19 21 18 22 19
-34 9 c-20 5 -37 5 -40 0 -3 -5 -16 -4 -28 2 -19 10 -7 13 78 21 96 9 104 8
165 -16 35 -14 79 -41 99 -60 19 -19 35 -28 35 -21 0 7 -10 21 -22 32 -13 10
-17 18 -10 19 6 0 12 -5 12 -12 0 -6 3 -9 6 -5 12 12 94 -54 113 -90 l18 -36
7 27 c4 15 11 24 16 21 6 -4 7 -11 4 -17 -4 -6 -2 -8 3 -5 16 10 43 -38 43
-76 0 -20 -9 -46 -21 -61 -17 -22 -18 -25 -3 -19 10 4 15 2 11 -4 -3 -5 0 -10
8 -10 9 0 11 4 6 11 -5 6 -5 20 0 31 21 54 4 118 -45 164 -27 25 -26 51 2 29
10 -8 13 -8 9 -1 -4 6 -1 14 5 16 8 3 5 6 -6 6 -10 1 -34 15 -54 32 -35 31
-131 80 -155 78 -7 0 11 -9 38 -20 28 -11 55 -25 60 -31 7 -8 4 -9 -10 -3 -11
4 -40 15 -65 23 -25 8 -53 19 -62 23 -10 5 -26 9 -35 8 -10 0 -2 -6 17 -13z
m-202 -55 c10 -6 10 -10 -2 -21 -9 -7 -13 -16 -10 -21 3 -5 1 -9 -5 -9 -12 0
-19 20 -13 43 5 19 11 21 30 8z m436 -105 c-6 -16 -8 -17 -16 -2 -11 19 0 42
13 29 6 -6 7 -18 3 -27z"/>
<path d="M1266 1920 c3 -47 7 -94 8 -104 1 -16 10 -19 63 -20 57 -2 64 0 83
26 15 21 16 26 5 21 -14 -5 -16 3 -14 53 3 97 -2 104 -71 101 -32 -1 -56 -5
-54 -8 2 -4 26 -5 54 -3 61 5 69 -8 60 -92 -3 -30 -2 -58 2 -60 5 -3 4 -12 -3
-20 -12 -14 -29 -10 -29 7 0 6 6 7 13 3 13 -8 -21 36 -37 48 -6 3 -21 -2 -34
-13 -14 -11 -26 -18 -28 -16 -1 1 -5 36 -9 77 -3 40 -8 76 -11 79 -3 3 -2 -33
2 -79z m91 -90 c1 -11 -2 -20 -7 -20 -6 0 -10 5 -10 10 0 16 -22 12 -36 -7 -7
-10 -15 -15 -18 -12 -11 10 5 38 25 44 10 4 19 11 19 18 0 18 23 -10 27 -33z"/>
<path d="M1464 1988 c-9 -15 -5 -161 5 -171 14 -14 93 -18 109 -5 8 7 12 40
12 98 l0 88 -61 -1 c-33 -1 -63 -5 -65 -9z m114 -80 c3 -70 1 -78 -19 -88 -12
-7 -36 -9 -56 -5 -27 5 -34 10 -33 28 1 12 1 27 0 32 -3 14 1 99 5 105 2 3 25
5 52 5 l48 0 3 -77z"/>
<path d="M808 1953 c7 -3 16 -2 19 1 4 3 -2 6 -13 5 -11 0 -14 -3 -6 -6z"/>
<path d="M845 1950 c-3 -6 2 -10 12 -10 10 0 36 -9 58 -21 27 -14 35 -16 25
-5 -22 23 -88 48 -95 36z"/>
<path d="M640 1928 c0 -5 -14 -7 -32 -4 l-33 6 27 -13 c15 -7 35 -22 44 -32 8
-11 13 -14 9 -7 -4 8 1 12 15 12 17 0 20 -4 15 -22 -4 -15 -3 -18 3 -10 10 15
29 -4 55 -53 13 -24 16 -26 17 -10 0 17 2 17 10 5 7 -11 10 -11 10 -2 0 10 4
10 23 0 12 -7 26 -11 31 -10 5 2 6 -4 3 -13 -9 -21 3 -51 13 -35 4 7 9 0 12
-19 2 -17 1 -31 -4 -31 -4 0 -8 -4 -8 -8 0 -5 7 -9 16 -9 12 0 14 7 9 36 -7
38 -44 115 -45 93 0 -10 -4 -10 -16 2 -9 9 -26 14 -40 12 -15 -3 -24 0 -23 7
3 24 -1 38 -10 33 -9 -6 -66 53 -66 68 0 5 -8 10 -17 12 -10 1 -18 -2 -18 -8z
m24 -13 c-4 -8 -11 -12 -16 -9 -6 4 -5 10 3 15 19 12 19 11 13 -6z"/>
<path d="M810 1925 c0 -8 8 -11 20 -8 11 3 20 7 20 8 0 1 -9 5 -20 8 -12 3
-20 0 -20 -8z"/>
<path d="M984 1885 c40 -48 38 -59 -3 -22 l-26 22 21 -25 c11 -14 33 -44 48
-68 29 -42 42 -51 30 -18 -3 9 -10 16 -15 16 -4 0 -5 7 -2 17 4 11 3 14 -5 9
-7 -4 -12 -3 -12 3 0 5 4 12 10 16 11 7 37 -41 49 -92 5 -21 9 -29 10 -17 2
44 -29 104 -79 153 -29 28 -54 51 -57 51 -3 0 11 -20 31 -45z"/>
<path d="M855 1907 c-14 -11 -15 -16 -5 -22 9 -5 11 -4 6 3 -24 40 56 -23 98
-76 16 -21 26 -30 23 -21 -3 9 0 22 6 29 9 10 9 11 0 6 -7 -4 -30 10 -54 34
-23 22 -46 40 -51 40 -5 0 -6 5 -3 10 8 14 2 13 -20 -3z"/>
<path d="M814 1872 l30 -32 -25 0 c-14 0 -31 6 -38 13 -10 10 -11 9 -6 -5 5
-11 18 -18 34 -18 29 0 63 -29 81 -70 10 -25 10 -25 5 3 -4 19 -2 26 5 22 21
-13 9 12 -20 40 -16 15 -27 32 -24 36 3 5 -2 6 -10 3 -11 -4 -16 0 -16 12 0 9
-3 14 -7 11 -3 -4 -13 -1 -22 5 -9 7 -3 -2 13 -20z m61 -52 c27 -30 12 -34
-15 -5 -13 14 -19 25 -13 25 5 0 18 -9 28 -20z"/>
<path d="M449 1856 c14 -14 26 -24 29 -22 7 8 -8 25 -31 37 -21 11 -21 10 2
-15z"/>
<path d="M384 1825 c11 -8 14 -15 8 -15 -7 0 -11 -6 -9 -12 1 -7 -5 -11 -13
-10 -8 2 -22 5 -31 7 -10 2 -28 -8 -40 -22 -13 -13 -42 -33 -64 -43 -28 -13
-34 -19 -19 -20 11 0 25 5 31 11 13 13 57 -7 48 -22 -4 -5 -10 -7 -14 -4 -5 2
-64 7 -132 11 -68 4 -127 11 -130 17 -9 13 -17 -21 -14 -58 5 -67 5 -70 13
-58 4 6 27 13 52 14 l45 3 1 -39 c1 -105 7 -120 17 -50 5 28 4 34 -3 20 l-9
-20 1 20 c0 11 4 31 8 45 l8 25 2 -25 c2 -21 3 -22 7 -5 3 11 15 34 26 50 l22
30 -34 -28 c-18 -15 -38 -24 -43 -21 -6 4 -32 8 -57 8 -44 1 -45 2 -47 34 l-2
33 90 -2 89 -1 -30 -19 c-17 -10 -31 -24 -31 -30 0 -6 14 1 32 16 26 22 39 26
72 23 23 -3 50 -8 61 -12 16 -6 17 -6 5 3 -14 10 -7 16 15 11 6 -1 -1 10 -14
24 -19 20 -22 28 -12 40 18 22 52 7 67 -29 7 -18 26 -42 41 -54 15 -11 22 -21
15 -21 -7 0 -36 21 -64 48 -51 46 -51 46 -23 9 16 -21 46 -47 68 -58 34 -18
41 -19 60 -6 14 9 29 11 42 6 11 -4 29 -8 40 -7 11 0 6 4 -13 9 -18 5 -30 14
-27 19 3 5 -5 14 -17 20 -21 10 -21 10 -6 -3 16 -13 16 -15 -6 -25 -20 -9 -30
-6 -60 14 -32 22 -50 64 -27 64 13 0 33 -27 24 -32 -4 -3 -2 -3 5 -2 6 2 12 0
12 -4 0 -4 10 -13 23 -21 13 -8 7 2 -16 26 -20 22 -34 42 -31 46 4 4 2 7 -4 7
-7 0 -12 5 -12 11 0 5 5 7 12 3 7 -5 8 -3 3 6 -6 10 -4 12 10 6 15 -5 16 -4 5
9 -7 8 -9 15 -5 15 4 0 2 7 -5 15 -7 8 -18 15 -24 15 -6 0 -2 -7 8 -15z m-18
-56 c9 -10 11 -19 5 -23 -5 -4 -12 2 -16 13 -4 13 -12 17 -27 13 -13 -3 -19
-1 -15 5 9 15 35 11 53 -8z"/>
<path d="M685 1821 c-3 -11 0 -32 8 -47 l15 -28 -3 42 c-3 49 -10 62 -20 33z"/>
<path d="M423 1815 c0 -7 8 -10 17 -8 9 3 25 -3 34 -12 24 -24 11 -32 -15 -9
-22 19 -22 19 -8 -3 13 -22 46 -36 61 -27 5 3 4 11 -1 18 -6 7 -7 17 -3 21 4
5 1 5 -5 1 -7 -4 -13 -3 -13 2 0 5 -15 13 -33 19 -25 8 -34 7 -34 -2z"/>
<path d="M994 1772 c0 -22 4 -35 8 -29 4 7 8 -9 8 -35 0 -26 -4 -50 -10 -53
-5 -3 -10 -1 -10 5 0 6 -4 8 -10 5 -16 -10 -11 -23 8 -20 9 2 21 4 26 4 11 1
2 122 -11 146 -8 14 -10 9 -9 -23z"/>
<path d="M1610 1800 c0 -8 5 -22 10 -30 9 -13 10 -13 10 0 0 8 -5 22 -10 30
-9 13 -10 13 -10 0z"/>
<path d="M1300 1780 c-13 -9 -13 -10 0 -10 8 0 22 5 30 10 13 9 13 10 0 10 -8
0 -22 -5 -30 -10z"/>
<path d="M1209 1778 c0 -2 -2 -21 -4 -43 -3 -22 -12 -45 -22 -52 -9 -7 -14
-15 -12 -18 15 -14 39 25 43 68 3 26 3 47 0 47 -2 0 -4 -1 -5 -2z"/>
<path d="M1228 1746 c-2 -19 0 -32 4 -30 13 8 9 -10 -8 -34 -9 -13 -13 -26
-10 -29 3 -4 6 -1 6 5 0 7 6 12 14 12 10 0 12 13 10 51 -3 62 -10 73 -16 25z"/>
<path d="M1310 1750 c8 -5 11 -10 6 -10 -4 0 -1 -12 9 -26 22 -33 13 -42 -14
-13 -12 13 -21 18 -21 12 0 -24 90 -84 137 -92 27 -5 57 -12 68 -15 13 -5 11
-2 -5 8 -14 8 -39 15 -56 16 -30 0 -91 37 -80 48 4 3 -2 14 -11 25 -16 19 -16
20 -1 14 40 -14 88 -18 105 -8 15 9 13 10 -12 6 -16 -3 -43 -1 -60 4 -22 7
-24 10 -10 11 15 0 11 5 -14 15 -38 17 -64 20 -41 5z m37 -16 c-3 -3 -12 -4
-19 -1 -8 3 -5 6 6 6 11 1 17 -2 13 -5z"/>
<path d="M951 1741 c0 -3 4 -15 8 -26 7 -18 8 -17 13 6 3 17 0 26 -9 26 -7 0
-13 -3 -12 -6z"/>
<path d="M1060 1729 c0 -6 -7 -9 -15 -5 -8 3 -15 1 -15 -4 0 -6 5 -10 11 -10
17 0 2 -61 -19 -82 -24 -25 -118 -31 -140 -9 -15 15 -15 15 -10 -1 4 -9 2 -19
-5 -21 -7 -3 21 -3 61 -1 88 4 119 22 128 72 3 21 8 45 11 55 2 9 2 17 -1 17
-3 0 -6 -5 -6 -11z"/>
<path d="M1105 1721 c8 -25 -4 -50 -15 -31 -5 8 -9 7 -13 -4 -4 -9 -2 -16 3
-16 6 0 10 -5 10 -11 0 -5 -4 -8 -9 -4 -5 3 -13 0 -17 -6 -5 -9 1 -10 20 -5
15 4 25 3 22 -2 -2 -4 -1 -14 4 -22 7 -12 12 -12 35 0 15 8 24 19 20 28 -3 7
-5 22 -5 32 0 10 -7 21 -16 24 -13 5 -14 3 -6 -6 9 -12 16 -42 13 -62 0 -5 -8
-3 -16 4 -12 10 -13 16 -4 26 14 17 -2 19 -19 2 -9 -9 -12 -9 -12 -1 0 7 5 15
10 18 13 8 13 42 -1 51 -8 4 -9 0 -4 -15z m30 -91 c3 -5 2 -10 -4 -10 -5 0
-13 5 -16 10 -3 6 -2 10 4 10 5 0 13 -4 16 -10z"/>
<path d="M1612 1724 c-8 -14 -14 -15 -42 -5 -18 6 -38 11 -44 10 -6 0 11 -8
39 -18 41 -15 50 -22 52 -44 2 -34 -9 -40 -70 -38 -28 1 -48 -1 -45 -4 3 -3
28 -6 56 -6 40 -1 52 -5 52 -17 0 -8 3 -12 7 -9 6 7 13 147 7 147 -2 0 -7 -7
-12 -16z"/>
<path d="M1470 1703 c-35 -13 -65 -53 -39 -53 5 0 8 4 4 9 -7 13 32 34 47 25
7 -4 8 -3 4 4 -4 7 -1 12 8 12 8 0 14 -6 12 -12 -1 -7 -1 -10 1 -5 3 4 19 7
36 7 16 0 28 2 26 4 -8 7 -84 14 -99 9z"/>
<path d="M1370 1681 c0 -5 9 -7 20 -4 11 3 20 7 20 9 0 2 -9 4 -20 4 -11 0
-20 -4 -20 -9z"/>
<path d="M189 1643 c-11 -25 -19 -85 -24 -169 -7 -139 -8 -135 40 -168 16 -12
20 -25 19 -75 -1 -66 9 -84 14 -25 4 58 -14 109 -44 123 l-26 12 7 132 c5 96
12 141 25 165 17 31 18 31 23 10 5 -17 14 -23 34 -24 15 -1 56 -7 91 -15 50
-10 73 -10 108 -1 24 7 57 12 74 12 16 0 31 4 34 8 3 5 -18 5 -47 0 -118 -18
-134 -19 -177 -8 -25 7 -60 14 -77 17 -21 3 -33 11 -33 20 0 15 7 15 55 -2 13
-4 12 -1 -5 9 -45 27 -73 21 -91 -21z"/>
<path d="M810 1655 c-13 -14 -19 -25 -14 -25 8 1 50 50 41 50 -2 0 -14 -11
-27 -25z"/>
<path d="M1280 1676 c0 -3 15 -15 33 -27 l32 -23 -24 27 c-22 24 -41 35 -41
23z"/>
<path d="M320 1664 c0 -17 21 -32 55 -38 29 -6 29 -6 -3 7 -18 7 -37 19 -42
27 -5 8 -10 10 -10 4z"/>
<path d="M710 1646 c0 -8 -6 -16 -12 -18 -9 -3 -10 -11 -2 -28 7 -16 13 -20
18 -12 4 7 3 12 -2 12 -6 0 -5 10 1 25 15 32 25 31 61 -5 16 -17 36 -30 44
-30 20 0 9 24 -14 29 -10 2 -27 12 -37 22 -21 22 -57 25 -57 5z"/>
<path d="M856 1644 c-9 -8 -16 -27 -15 -42 0 -25 1 -24 12 8 10 29 17 34 37
32 20 -2 22 -1 10 7 -20 14 -26 14 -44 -5z"/>
<path d="M1167 1616 c-14 -13 -28 -21 -31 -18 -15 14 -4 -13 14 -35 12 -16 20
-20 20 -11 0 8 -5 19 -10 24 -7 7 -2 18 14 33 l24 23 31 -23 c22 -16 27 -25
19 -30 -7 -5 -17 -4 -22 1 -6 6 -14 10 -19 10 -5 0 1 -9 14 -21 l24 -21 -22 5
c-33 7 -28 -2 7 -15 24 -8 29 -14 24 -30 -3 -11 1 -27 9 -36 15 -17 47 -87 47
-103 0 -14 -20 -10 -20 4 0 6 -7 20 -14 30 -12 16 -13 15 -13 -9 0 -19 2 -22
9 -13 5 9 7 -8 5 -46 -3 -33 0 -71 5 -85 6 -14 10 -72 10 -130 0 -58 4 -112 8
-121 5 -8 5 -31 1 -50 -6 -27 -3 -44 16 -78 12 -24 23 -40 23 -35 0 5 5 1 11
-9 12 -20 -3 -47 -26 -47 -7 0 -15 -9 -18 -21 -4 -15 1 -22 19 -30 14 -5 30
-9 35 -9 6 0 63 -18 128 -40 64 -22 124 -40 132 -40 17 1 -226 85 -271 93 -30
7 -43 37 -15 37 24 0 45 44 56 117 17 117 16 115 42 99 35 -22 99 -27 121 -11
11 8 15 15 9 15 -7 0 -15 -5 -18 -10 -8 -13 -83 -2 -112 16 -30 19 -39 4 -48
-80 -10 -97 -13 -103 -40 -64 -18 26 -20 36 -11 47 8 12 8 13 -1 7 -7 -4 -13
-4 -13 1 0 4 14 16 30 25 29 17 40 50 21 62 -5 4 -7 -2 -4 -13 3 -12 -3 -24
-18 -35 -34 -24 -42 -20 -35 18 4 20 2 37 -4 41 -5 3 -10 22 -10 41 0 23 4 33
11 28 8 -5 8 -1 0 14 -6 11 -11 31 -11 44 l1 23 19 -24 c11 -13 20 -20 20 -15
0 4 -7 15 -15 24 -22 24 -49 165 -37 198 2 6 10 12 17 12 7 0 15 6 17 12 5 14
-39 108 -56 121 -8 6 -7 10 2 14 9 4 7 13 -9 39 -19 32 -20 34 -2 35 10 1 21
1 24 1 3 -1 6 5 6 13 0 7 -6 11 -14 8 -7 -3 -13 0 -13 6 0 6 9 11 20 11 11 0
20 -5 20 -11 0 -7 12 -10 30 -7 20 3 30 0 30 -8 0 -16 -15 -26 -24 -17 -11 11
-37 12 -30 1 3 -5 8 -7 11 -4 9 9 34 -23 39 -50 3 -18 1 -25 -8 -21 -7 2 -12
15 -10 28 1 16 -1 20 -6 11 -11 -17 -42 -5 -35 14 3 8 0 14 -5 14 -19 0 -23
-18 -8 -33 8 -8 12 -18 8 -22 -4 -4 -1 -5 7 -3 8 2 20 -7 26 -20 11 -21 13
-21 27 -5 22 26 33 47 21 40 -6 -4 -9 9 -8 34 3 50 9 56 23 24 6 -14 7 -25 2
-25 -14 0 -9 -58 6 -64 13 -5 12 23 -2 45 -4 7 -1 10 7 7 40 -13 62 -143 34
-199 -10 -19 -21 -36 -24 -39 -12 -9 -52 -110 -47 -119 3 -4 -1 -29 -9 -56 -9
-27 -14 -60 -14 -74 1 -14 -1 -44 -4 -66 -6 -36 -6 -37 3 -10 5 17 12 55 15
86 2 31 9 68 15 83 5 15 8 31 5 36 -5 9 33 102 46 110 4 3 15 24 24 48 29 71
5 178 -56 256 -17 21 -23 24 -38 14 -20 -12 -51 -5 -51 12 0 6 5 8 12 4 6 -4
8 -3 4 4 -4 7 -16 6 -37 -5 -27 -14 -32 -13 -48 1 -24 21 -33 20 -64 -8z"/>
<path d="M908 1623 c7 -3 16 -2 19 1 4 3 -2 6 -13 5 -11 0 -14 -3 -6 -6z"/>
<path d="M1040 1609 c-12 -8 -10 -9 7 -4 12 3 24 1 28 -5 3 -5 16 -10 28 -10
18 1 15 4 -12 15 -39 18 -33 17 -51 4z"/>
<path d="M588 1594 c-3 -3 -26 -7 -52 -9 -49 -5 -95 -30 -164 -92 l-44 -38 -1
-267 c-1 -147 1 -258 5 -247 5 11 7 82 6 157 -3 214 1 322 11 322 5 0 12 -8
14 -17 2 -10 4 -4 3 14 -1 24 -4 29 -14 21 -7 -6 -15 -9 -18 -6 -6 7 80 83
131 116 24 15 56 26 82 27 23 0 46 4 49 8 4 4 21 7 38 7 29 -1 30 -1 12 -15
-25 -19 -16 -19 18 -1 l27 13 -23 7 c-29 7 -73 8 -80 0z"/>
<path d="M550 1545 c-11 -13 -10 -14 4 -9 9 3 16 10 16 15 0 13 -6 11 -20 -6z"/>
<path d="M1220 1512 c6 -13 14 -21 18 -18 3 4 -2 14 -12 24 -18 16 -18 16 -6
-6z"/>
<path d="M1290 1483 c1 -12 23 -36 45 -50 47 -30 75 -43 75 -36 0 5 -14 16
-32 26 -26 15 -29 20 -17 28 10 8 9 9 -8 4 -15 -4 -29 1 -42 14 -12 12 -21 18
-21 14z"/>
<path d="M1370 1476 c0 -2 7 -9 15 -16 9 -7 15 -8 15 -2 0 5 -7 12 -15 16 -8
3 -15 4 -15 2z"/>
<path d="M1250 1451 c0 -6 4 -13 10 -16 6 -3 7 1 4 9 -7 18 -14 21 -14 7z"/>
<path d="M1480 1332 c0 -4 17 -6 38 -4 26 3 42 -1 51 -12 16 -19 17 -82 2
-100 -8 -10 -9 -16 -2 -21 6 -3 13 7 17 22 4 15 14 36 22 46 8 9 12 20 9 24
-4 3 -7 1 -7 -5 0 -7 -4 -12 -10 -12 -5 0 -10 10 -10 23 0 13 -5 28 -12 35
-13 13 -98 17 -98 4z"/>
<path d="M1313 1319 c9 -5 17 -18 18 -27 0 -11 2 -12 6 -4 6 15 -14 42 -31 42
-6 0 -3 -5 7 -11z"/>
<path d="M8 1285 c-3 -16 -1 -25 7 -25 8 0 10 9 7 25 -2 14 -6 25 -7 25 -1 0
-5 -11 -7 -25z"/>
<path d="M1306 1297 c3 -10 9 -15 12 -12 3 3 0 11 -7 18 -10 9 -11 8 -5 -6z"/>
<path d="M70 1291 c39 -5 45 -9 45 -30 0 -13 7 -26 15 -28 11 -4 12 -2 2 4 -7
5 -11 20 -10 34 3 22 0 24 -47 25 l-50 2 45 -7z"/>
<path d="M1340 1258 c0 -9 5 -20 10 -23 13 -8 13 5 0 25 -8 13 -10 13 -10 -2z"/>
<path d="M6 1235 c-6 -16 1 -106 9 -114 3 -2 5 12 5 33 0 34 2 37 21 31 15 -5
19 -4 15 4 -4 6 -16 11 -28 11 -17 0 -19 4 -14 25 7 27 2 34 -8 10z"/>
<path d="M77 1230 c-3 -12 3 -30 14 -43 10 -12 18 -17 19 -11 0 6 -6 17 -14
23 -8 7 -12 21 -9 31 3 11 3 20 0 20 -2 0 -7 -9 -10 -20z"/>
<path d="M120 1189 c0 -19 5 -41 10 -49 7 -10 8 -1 4 30 -8 56 -14 64 -14 19z"/>
<path d="M483 1188 c-18 -13 -33 -27 -33 -31 0 -5 12 1 27 13 14 11 29 17 32
12 3 -4 41 -8 83 -7 42 0 82 -5 87 -10 7 -7 -20 -10 -84 -10 -60 0 -98 -4
-106 -12 -10 -10 -4 -10 27 -1 22 6 70 8 112 4 51 -4 72 -2 72 6 0 6 16 -6 35
-28 23 -26 34 -49 35 -70 0 -17 5 -45 11 -63 9 -26 8 -41 -5 -75 -14 -38 -15
-47 -2 -77 17 -42 67 -90 73 -71 3 6 10 9 15 6 7 -4 8 -2 4 5 -6 8 -12 9 -20
2 -9 -8 -18 -3 -32 17 -43 60 -47 77 -30 110 9 17 16 39 16 50 0 10 5 23 11
29 8 8 5 14 -10 22 -16 9 -21 21 -21 49 0 29 -8 45 -36 75 -20 21 -49 41 -65
44 -16 3 -26 9 -23 14 3 5 10 6 16 3 7 -4 8 -2 4 5 -5 8 -12 9 -19 3 -7 -5
-20 -8 -29 -7 -10 2 -18 -1 -18 -7 0 -6 -9 -8 -22 -4 -13 4 -28 8 -35 10 -7 1
-16 5 -19 9 -11 11 -17 9 -51 -15z m52 2 c3 -5 2 -10 -4 -10 -5 0 -13 5 -16
10 -3 6 -2 10 4 10 5 0 13 -4 16 -10z m275 -194 c0 -3 -4 -8 -10 -11 -5 -3
-10 -1 -10 4 0 6 5 11 10 11 6 0 10 -2 10 -4z"/>
<path d="M1095 1190 c17 -11 37 -20 45 -20 8 0 -2 9 -23 20 -48 26 -61 26 -22
0z"/>
<path d="M1140 1196 c14 -8 33 -15 42 -16 9 0 20 -10 24 -22 8 -27 44 -75 44
-60 0 6 -6 17 -13 24 -7 7 -17 25 -24 39 -6 15 -22 29 -35 31 -13 3 -32 9 -43
12 -13 5 -12 2 5 -8z"/>
<path d="M952 1188 c-25 -25 -14 -41 26 -34 20 3 56 6 80 6 36 0 41 2 30 14
-7 8 -15 10 -18 6 -3 -4 -12 -7 -20 -7 -8 0 -34 -3 -58 -7 -36 -7 -41 -5 -36
8 4 10 23 16 57 19 l52 3 -50 2 c-29 1 -56 -3 -63 -10z"/>
<path d="M202 1155 c0 -16 2 -22 5 -12 2 9 2 23 0 30 -3 6 -5 -1 -5 -18z"/>
<path d="M1390 1170 c0 -5 5 -10 11 -10 5 0 7 5 4 10 -3 6 -8 10 -11 10 -2 0
-4 -4 -4 -10z"/>
<path d="M54 1150 c4 -14 9 -40 13 -57 3 -18 9 -33 14 -33 4 0 2 21 -6 48 -8
26 -14 49 -14 50 0 2 -3 7 -7 10 -4 4 -4 -4 0 -18z"/>
<path d="M1320 1166 c0 -2 7 -7 16 -10 8 -3 12 -2 9 4 -6 10 -25 14 -25 6z"/>
<path d="M910 1151 c0 -7 -5 -9 -12 -5 -6 4 -8 3 -4 -4 3 -6 1 -21 -4 -34 -14
-29 1 -75 27 -85 10 -4 38 -19 62 -35 25 -15 54 -28 65 -27 17 1 15 2 -6 9
-39 12 -89 50 -82 62 4 6 -1 8 -14 4 -16 -5 -25 0 -38 19 -16 24 -16 28 2 60
10 19 15 37 11 41 -4 4 -7 2 -7 -5z"/>
<path d="M216 1124 c-11 -28 -6 -94 8 -128 8 -19 19 -70 26 -113 6 -43 15 -88
20 -100 6 -15 5 -23 -3 -26 -7 -2 1 -4 16 -4 l28 0 -20 21 c-22 23 -29 86 -11
86 6 0 10 5 10 12 0 9 -3 9 -12 0 -24 -24 -54 194 -31 230 11 20 21 -15 12
-46 -5 -17 -8 -42 -8 -56 1 -14 6 0 12 30 l10 55 9 -49 c6 -32 5 -53 -2 -60
-16 -16 -12 -45 10 -76 11 -15 18 -29 17 -31 -1 -2 0 -3 2 -2 10 6 31 -21 32
-41 1 -16 2 -17 6 -4 2 9 -1 26 -6 37 -7 12 -7 22 -2 26 6 3 14 -14 19 -37 8
-36 10 -38 10 -13 0 31 -25 109 -28 88 -2 -7 -3 -17 -4 -22 -3 -23 -16 -20
-36 9 -14 19 -19 37 -15 48 6 15 8 15 16 -3 8 -16 8 -15 4 8 -3 15 -8 48 -12
75 -9 70 -61 128 -77 86z m25 -17 c-5 -7 -11 -28 -14 -47 -3 -31 -4 -30 -5 11
-2 47 4 63 20 53 5 -3 5 -11 -1 -17z"/>
<path d="M1380 1129 c0 -5 4 -8 9 -4 6 3 12 -14 14 -37 l4 -43 1 48 c2 36 -2
47 -13 47 -8 0 -15 -5 -15 -11z"/>
<path d="M950 1110 c-14 -10 -28 -16 -32 -14 -13 8 -9 -7 6 -22 8 -8 24 -14
35 -14 22 0 37 17 26 28 -4 4 -10 1 -12 -5 -6 -16 -33 -17 -33 -2 0 5 6 7 13
3 6 -4 9 -4 5 1 -5 5 1 15 13 23 11 8 22 12 24 11 1 -2 6 -25 9 -51 6 -42 4
-48 -11 -49 -16 0 -15 -1 2 -9 25 -11 116 -12 132 -2 7 4 -18 7 -55 5 -50 -1
-59 0 -37 6 23 7 25 9 9 10 -12 0 -24 7 -27 15 -8 20 80 29 136 14 36 -9 49
-9 61 1 13 11 13 15 -4 33 -10 11 -24 18 -32 15 -9 -4 -8 -6 3 -6 18 -1 32
-25 22 -35 -4 -3 -16 -6 -27 -5 -19 0 -19 1 -3 8 17 6 16 8 -6 20 -13 7 -35
11 -48 8 -23 -4 -23 -4 3 -6 15 0 30 -6 34 -13 5 -8 2 -9 -10 -5 -10 4 -26 7
-37 7 -12 0 -19 7 -19 20 0 12 -7 20 -17 21 -10 0 -36 2 -59 4 -27 2 -48 -3
-64 -15z m129 -6 c12 -10 -11 -30 -38 -32 -25 -2 -31 2 -31 17 0 11 6 22 13
24 11 5 47 -1 56 -9z"/>
<path d="M1025 1090 c3 -5 11 -10 16 -10 6 0 7 5 4 10 -3 6 -11 10 -16 10 -6
0 -7 -4 -4 -10z"/>
<path d="M192 1082 c-1 -23 -8 -58 -16 -77 -15 -35 -12 -70 9 -95 7 -8 15 -22
18 -30 4 -10 6 -8 6 7 1 12 -4 25 -10 28 -23 15 -28 54 -13 91 8 20 13 54 11
77 l-4 42 -1 -43z"/>
<path d="M605 1110 c-3 -5 -16 -10 -29 -10 -25 0 -101 -34 -111 -50 -10 -16
11 -12 25 5 7 8 22 15 34 15 18 0 16 -3 -10 -19 -18 -11 -45 -21 -60 -24 -26
-4 -25 -4 7 -6 19 0 41 5 47 12 14 13 114 19 177 10 36 -6 38 -7 15 -14 -21
-6 -22 -7 -4 -8 11 -1 26 5 33 12 11 10 13 9 9 -3 -3 -8 -13 -16 -24 -18 -50
-6 -214 -47 -214 -53 0 -3 39 4 88 17 48 13 99 24 113 24 31 0 45 15 46 50 1
14 -1 19 -4 13 -5 -14 -33 -18 -33 -5 0 4 6 14 13 21 6 7 8 11 2 10 -5 -1 -27
5 -47 14 -43 19 -64 21 -73 7z m88 -25 c20 -14 21 -15 2 -15 -17 0 -18 -2 -5
-11 12 -9 12 -10 -3 -5 -10 3 -23 6 -28 6 -5 0 -8 5 -6 11 1 6 -9 15 -23 20
-24 8 -24 8 -6 -6 11 -8 17 -18 13 -21 -4 -4 -13 -1 -21 6 -9 6 -21 10 -28 7
-8 -4 -7 -6 5 -6 9 -1 17 -6 17 -12 0 -16 -34 -6 -38 11 -7 36 76 46 121 15z
m-133 -17 c0 -19 -2 -20 -10 -8 -13 19 -13 30 0 30 6 0 10 -10 10 -22z"/>
<path d="M1372 1060 c0 -19 2 -27 5 -17 2 9 2 25 0 35 -3 9 -5 1 -5 -18z"/>
<path d="M1590 1062 c6 -12 9 -44 6 -70 -4 -36 -3 -40 3 -17 13 47 12 70 -5
91 -14 18 -15 18 -4 -4z"/>
<path d="M1310 1041 c0 -6 4 -13 10 -16 6 -3 7 1 4 9 -7 18 -14 21 -14 7z"/>
<path d="M605 1014 c-20 -15 -12 -17 19 -5 11 4 15 10 10 13 -5 4 -18 0 -29
-8z"/>
<path d="M10 940 c-3 -51 -3 -81 0 -125 l3 -30 4 28 c5 32 11 34 29 10 13 -17
14 -17 8 0 -4 10 -1 17 6 17 6 0 9 4 6 9 -4 5 0 11 6 14 7 2 10 7 7 11 -4 4
-14 0 -22 -9 -24 -23 -37 -18 -37 14 0 25 5 30 28 34 l27 4 -27 2 c-22 1 -27
6 -31 34 -3 28 -4 26 -7 -13z"/>
<path d="M1545 950 c-4 -6 -2 -10 4 -10 6 0 18 -11 26 -24 13 -20 14 -29 5
-46 -9 -17 -9 -25 1 -34 9 -8 10 -8 5 1 -4 7 -1 21 5 31 9 15 9 26 -2 50 -15
34 -34 47 -44 32z"/>
<path d="M1363 923 c-15 -5 -17 -23 -4 -23 5 0 11 7 15 15 3 8 4 15 3 14 -1 0
-8 -3 -14 -6z"/>
<path d="M1466 915 c17 -13 17 -14 2 -15 -9 0 -19 4 -23 10 -3 5 -12 7 -20 3
-26 -10 -16 -18 23 -18 20 0 49 -3 65 -7 15 -4 27 -2 27 3 0 5 -8 9 -17 9 -10
0 -27 7 -37 15 -11 8 -24 15 -30 15 -5 0 -1 -7 10 -15z"/>
<path d="M690 899 c0 -9 -7 -22 -15 -29 -33 -27 -15 -85 43 -137 20 -18 30
-33 24 -33 -7 0 -12 -5 -12 -12 0 -6 7 -4 18 5 23 21 43 22 36 2 -4 -8 -10
-13 -14 -10 -5 3 -11 1 -15 -5 -3 -5 -16 -10 -28 -10 -12 -1 -33 -7 -47 -15
-33 -19 -27 -18 47 4 36 11 65 15 69 10 3 -5 11 -9 17 -9 7 0 4 7 -5 14 -20
14 -25 31 -7 20 7 -4 10 -1 7 7 -3 8 -16 14 -29 15 -14 0 -35 10 -47 22 -12
12 -26 22 -32 22 -5 0 -10 3 -10 8 0 4 18 7 41 8 32 0 39 -3 36 -16 -2 -9 1
-17 8 -17 8 0 11 7 7 15 -3 10 -1 13 6 8 7 -4 12 -14 12 -21 0 -22 48 -30 68
-12 12 11 22 13 33 6 19 -10 73 26 64 42 -13 20 -62 9 -90 -21 -33 -35 -55
-38 -62 -10 -6 22 -33 34 -78 35 -24 0 -31 5 -33 23 -4 26 15 55 30 46 5 -4 8
-15 5 -25 -3 -10 -1 -22 4 -25 5 -3 9 9 9 26 0 38 -27 52 -46 25 -8 -10 -14
-33 -14 -49 0 -24 -3 -27 -10 -16 -15 24 -12 52 10 75 13 14 16 25 10 35 -8
13 -10 13 -10 -1z m249 -138 c-13 -10 -29 -16 -36 -14 -21 8 5 33 34 33 l25 0
-23 -19z"/>
<path d="M1610 847 c0 -47 -4 -67 -12 -67 -9 0 -10 -3 -2 -8 6 -4 14 -14 17
-22 6 -16 9 14 9 98 0 29 -2 56 -6 59 -3 4 -6 -24 -6 -60z"/>
<path d="M90 893 c0 -5 9 -18 20 -28 11 -10 20 -14 20 -8 0 5 -9 18 -20 28
-11 10 -20 14 -20 8z"/>
<path d="M998 869 c18 -18 35 -30 37 -27 7 7 -45 58 -58 58 -6 0 4 -14 21 -31z"/>
<path d="M930 870 c0 -5 6 -7 14 -4 13 5 33 -29 28 -48 -4 -16 8 -7 19 13 8
16 8 20 -1 14 -7 -4 -13 1 -17 14 -5 21 -43 31 -43 11z"/>
<path d="M181 842 c0 -18 -5 -41 -10 -51 -6 -11 -6 -23 0 -32 8 -12 10 -12 8
1 -1 8 1 27 5 41 4 15 6 38 3 50 -3 18 -5 16 -6 -9z"/>
<path d="M1402 850 c0 -14 2 -19 5 -12 2 6 2 18 0 25 -3 6 -5 1 -5 -13z"/>
<path d="M1477 841 c34 -3 68 -12 75 -20 11 -11 9 -13 -9 -8 -33 8 -28 -7 7
-20 17 -6 28 -7 24 -2 -3 5 3 9 13 10 14 0 15 2 3 6 -8 3 -23 14 -33 24 -14
15 -31 19 -80 17 l-62 -1 62 -6z"/>
<path d="M30 806 c0 -3 12 -18 27 -33 18 -19 24 -22 20 -10 -4 10 -7 20 -7 22
0 3 -9 9 -20 15 -11 6 -20 9 -20 6z"/>
<path d="M352 775 c0 -16 2 -22 5 -12 2 9 2 23 0 30 -3 6 -5 -1 -5 -18z"/>
<path d="M371 789 c-1 -9 6 -32 14 -50 18 -43 18 -16 0 31 -7 19 -14 28 -14
19z"/>
<path d="M1396 775 c-21 -21 -20 -35 2 -35 13 0 14 2 3 9 -11 7 -10 11 5 19
10 6 16 13 13 17 -4 3 -14 -1 -23 -10z"/>
<path d="M1043 763 c9 -9 20 -13 24 -9 4 4 1 11 -7 16 -25 16 -35 11 -17 -7z"/>
<path d="M28 716 c-38 -40 -35 -56 3 -18 17 17 30 34 28 39 -2 5 -16 -5 -31
-21z"/>
<path d="M1286 723 c8 -43 -4 -106 -18 -97 -7 4 -8 3 -4 -4 4 -7 2 -12 -5 -12
-7 0 -9 -3 -6 -6 4 -4 13 -2 20 4 8 7 16 9 20 6 3 -3 3 4 0 16 -4 17 -2 21 8
18 8 -3 13 -12 11 -22 -2 -9 4 -16 13 -16 21 0 19 23 -5 38 -13 8 -20 23 -20
45 0 17 -5 39 -10 47 -7 11 -8 6 -4 -17z"/>
<path d="M268 733 c12 -2 30 -2 40 0 9 3 -1 5 -23 4 -22 0 -30 -2 -17 -4z"/>
<path d="M1508 721 c-14 -16 -14 -20 -2 -25 9 -3 14 1 14 14 0 23 1 24 51 8
31 -9 39 -16 39 -35 0 -12 4 -23 8 -23 5 0 7 14 4 30 -3 20 -10 30 -21 30 -10
0 -21 3 -25 7 -15 16 -52 12 -68 -6z"/>
<path d="M335 723 c-89 -20 -143 -36 -188 -57 -29 -13 -74 -33 -102 -45 -27
-11 -43 -20 -35 -21 8 0 28 7 44 15 15 8 32 15 38 15 5 0 39 14 75 31 86 40
181 59 194 38 13 -22 11 -30 -11 -36 -13 -3 -20 -13 -19 -27 1 -17 2 -17 6 -3
2 9 10 17 18 17 19 0 26 26 15 55 -5 14 -11 24 -12 24 -2 -1 -12 -3 -23 -6z"/>
<path d="M880 720 c-8 -5 -16 -14 -16 -20 -3 -23 -5 -24 -14 -10 -8 13 -10 13
-10 -2 0 -24 12 -28 35 -12 17 13 18 16 5 24 -13 8 -12 10 3 10 9 0 17 5 17
10 0 12 -1 12 -20 0z"/>
<path d="M913 703 c-7 -2 -13 -12 -12 -21 0 -9 3 -12 5 -6 4 9 16 8 45 -4 33
-13 42 -13 52 -2 9 10 9 11 -1 6 -16 -9 -84 13 -77 25 7 10 6 10 -12 2z"/>
<path d="M220 665 c-10 -12 -10 -19 -2 -27 7 -7 12 -20 12 -29 0 -10 4 -20 9
-24 6 -3 6 5 1 22 -15 52 -15 55 -2 60 11 4 18 -32 12 -62 -1 -5 2 -6 7 -2 4
5 8 24 8 43 0 37 -22 47 -45 19z"/>
<path d="M0 653 c0 -4 5 -15 10 -23 8 -13 10 -13 10 2 0 9 -4 20 -10 23 -5 3
-10 3 -10 -2z"/>
<path d="M880 650 c-25 -4 -65 -5 -89 -2 -27 3 -42 1 -38 -5 8 -12 150 -8 174
6 20 12 17 12 -47 1z"/>
<path d="M358 612 c5 -23 6 -24 12 -7 6 16 9 14 20 -16 8 -18 15 -37 18 -41 2
-5 -6 -8 -17 -8 -12 0 -21 -4 -21 -10 0 -6 9 -6 25 0 30 12 31 10 40 -80 8
-83 12 -103 38 -170 23 -62 62 -123 101 -159 14 -13 23 -28 20 -33 -3 -5 -2
-7 3 -6 4 1 39 -13 78 -32 65 -33 75 -35 170 -35 125 0 200 26 281 98 30 27
54 45 54 40 0 -15 -111 -114 -121 -108 -5 4 -9 1 -9 -4 0 -6 -8 -11 -17 -12
-10 0 -13 -3 -6 -5 22 -9 81 27 130 79 26 29 52 51 56 49 5 -1 6 2 2 7 -3 6
-13 7 -22 4 -11 -4 -14 -2 -11 8 3 8 11 13 17 11 7 -1 10 2 6 8 -3 5 -2 10 3
10 6 0 9 8 8 17 0 10 5 17 12 15 8 -1 11 2 7 7 -3 6 -2 22 1 38 7 25 8 25 15
8 5 -12 6 0 4 30 -3 40 -3 44 4 20 8 -29 9 -29 10 -4 0 14 -3 29 -8 35 -6 5
-12 36 -14 69 -2 47 -4 40 -5 -32 -2 -94 -8 -127 -22 -118 -5 3 -6 -3 -4 -12
12 -45 -110 -176 -206 -222 -48 -23 -68 -26 -160 -26 -92 0 -111 3 -155 25
-27 14 -77 52 -110 85 -84 83 -128 182 -141 316 -7 78 -42 162 -74 179 -15 8
-16 5 -12 -18z"/>
<path d="M695 630 c-3 -5 -17 -10 -30 -10 -13 0 -27 -4 -30 -10 -3 -5 -13 -10
-21 -10 -8 0 -13 4 -9 9 3 5 1 12 -4 15 -17 11 -21 -11 -5 -25 12 -10 20 -10
35 -1 10 7 27 12 36 12 20 1 64 30 46 30 -7 0 -15 -4 -18 -10z"/>
<path d="M915 630 l-30 -8 29 -1 c63 -2 12 -13 -96 -20 -104 -7 -107 -8 -37
-10 42 0 101 4 130 9 69 13 129 5 129 -19 0 -9 9 -24 20 -34 11 -9 20 -13 20
-7 0 5 -5 12 -11 15 -5 4 -14 17 -19 30 -7 18 -21 26 -62 34 l-53 10 53 -4
c29 -2 67 -11 84 -19 23 -12 27 -12 19 -2 -13 15 -88 37 -123 35 -13 -1 -36
-5 -53 -9z"/>
<path d="M748 613 c23 -2 59 -2 80 0 20 2 1 4 -43 4 -44 0 -61 -2 -37 -4z"/>
<path d="M342 585 c0 -16 2 -22 5 -12 2 9 2 23 0 30 -3 6 -5 -1 -5 -18z"/>
<path d="M286 585 c-17 -18 -21 -41 -8 -49 5 -3 9 -35 10 -71 0 -51 -3 -67
-16 -75 -16 -9 -16 -9 -1 -10 9 0 20 7 23 16 10 27 7 123 -6 143 -9 15 -9 23
2 35 7 9 15 14 18 11 3 -3 4 -58 3 -124 -2 -98 0 -121 14 -135 15 -15 15 -16
-7 -17 -19 -1 -20 -2 -4 -6 15 -4 16 -7 5 -14 -11 -7 -11 -9 3 -9 24 0 35 40
13 52 -14 9 -16 26 -14 129 2 126 -5 153 -35 124z"/>
<path d="M665 586 c41 -28 95 -38 178 -33 84 6 147 22 147 38 0 5 -12 3 -27
-4 -40 -20 -104 -28 -120 -15 -9 7 -13 7 -13 -1 0 -14 -57 -15 -65 -1 -4 6
-16 8 -26 5 -11 -4 -31 0 -44 9 -30 19 -58 22 -30 2z"/>
<path d="M1216 575 c3 -16 7 -38 9 -48 6 -27 -9 -58 -48 -100 -23 -25 -40 -35
-51 -31 -13 5 -14 9 -5 20 10 12 9 13 -5 8 -9 -3 -16 -12 -16 -19 0 -17 -114
-95 -139 -95 -11 0 -22 -4 -25 -9 -3 -4 -16 -6 -30 -4 -13 3 -26 1 -30 -5 -3
-5 5 -7 18 -5 24 5 49 -18 28 -25 -17 -5 -15 -19 2 -19 8 0 14 5 13 10 -1 5
12 14 30 21 17 6 35 14 39 19 4 4 -7 2 -24 -4 -17 -6 -37 -9 -44 -6 -7 2 1 8
17 12 17 4 41 14 54 22 17 11 26 12 35 3 8 -8 4 -16 -16 -32 -16 -11 -28 -25
-28 -31 1 -7 20 8 43 33 23 25 60 59 82 74 22 16 52 43 67 60 26 29 27 30 28
9 0 -13 -4 -23 -10 -23 -5 0 -10 -5 -10 -11 0 -8 5 -7 16 2 9 8 14 22 11 37
-3 13 0 38 5 55 7 24 5 42 -7 72 -12 30 -14 33 -9 10z m-86 -189 c0 -5 -79
-56 -87 -56 -13 1 61 59 75 60 6 0 12 -2 12 -4z"/>
<path d="M361 569 c-1 -9 -8 -22 -16 -29 -8 -7 -14 -22 -14 -34 1 -20 2 -20 6
-1 3 11 12 28 20 37 8 9 13 23 10 30 -4 9 -6 8 -6 -3z"/>
<path d="M1130 566 l-25 -14 28 1 c15 1 27 8 27 15 0 15 1 15 -30 -2z"/>
<path d="M1267 568 c-19 -10 -23 -53 -7 -63 6 -4 7 -11 4 -17 -5 -7 -2 -8 5
-3 9 5 10 10 2 18 -16 16 -13 54 4 61 19 7 45 -31 45 -66 0 -31 -17 -47 -23
-21 -2 10 -4 1 -3 -19 0 -23 3 -33 8 -25 6 9 8 8 9 -3 1 -8 5 -1 10 15 6 25 7
21 6 -23 -2 -40 1 -52 13 -53 8 0 3 -5 -13 -11 -15 -5 -24 -14 -20 -21 4 -6 0
-8 -9 -5 -11 5 -15 0 -14 -15 1 -12 -1 -26 -4 -32 -13 -18 -18 -55 -9 -55 5 0
9 8 9 18 0 9 5 24 10 32 8 11 9 7 4 -15 -11 -54 -33 -104 -70 -157 -62 -89
-74 -100 -116 -97 -20 2 -40 0 -43 -3 -3 -3 21 -5 54 -5 33 0 58 4 55 8 -6 11
37 60 47 53 9 -5 -9 -44 -26 -56 -7 -5 -7 -8 0 -8 12 0 43 20 31 20 -4 0 8 18
27 39 19 22 40 49 47 60 6 12 15 19 20 16 4 -3 19 0 32 5 22 10 22 10 -4 5
-33 -6 -34 1 -10 64 13 33 23 45 40 46 26 2 29 -20 8 -50 -12 -18 -14 -50 -4
-60 2 -2 10 0 18 5 10 7 11 10 3 10 -15 0 -18 36 -4 44 4 3 11 18 14 33 3 16
15 34 27 41 27 17 37 8 19 -15 -13 -16 -12 -17 4 -4 19 15 23 41 7 41 -6 0
-28 -9 -49 -19 -22 -12 -47 -17 -60 -14 -12 3 -21 2 -19 -3 3 -14 -12 -54 -22
-54 -4 0 -8 -6 -7 -12 1 -31 -4 -49 -11 -44 -5 3 -9 0 -9 -7 0 -19 -44 -87
-55 -87 -6 0 -4 8 3 18 13 15 12 16 -3 3 -25 -19 -22 -6 6 35 16 23 26 31 29
22 3 -7 5 -4 5 7 -2 36 2 56 10 52 4 -3 8 6 8 19 3 47 15 79 24 65 6 -10 10
-8 15 9 5 17 9 19 15 10 12 -19 40 -21 40 -4 0 8 8 14 18 14 14 0 15 -2 2 -10
-8 -5 -10 -10 -5 -10 6 0 17 5 25 10 13 9 13 10 0 10 -12 1 -11 3 3 11 9 5 17
15 17 21 0 6 10 19 22 29 20 18 20 19 2 20 -11 0 -13 3 -6 6 13 5 16 31 6 57
-4 10 -17 16 -38 15 l-31 -1 30 -7 c21 -4 31 -13 33 -29 2 -12 -2 -22 -8 -22
-7 0 -9 -7 -6 -16 8 -22 -31 -74 -56 -74 -14 0 -18 5 -14 15 3 8 0 15 -5 15
-7 0 -9 -11 -7 -25 6 -28 -6 -34 -17 -7 -6 15 -8 14 -20 -8 -10 -18 -14 -20
-15 -8 0 27 11 48 26 48 8 0 14 7 14 15 0 8 -4 15 -9 15 -5 0 -8 23 -8 50 1
28 -1 50 -5 50 -5 0 -8 12 -8 26 0 50 -31 81 -63 62z m43 -264 c0 -8 -4 -12
-10 -9 -5 3 -10 10 -10 16 0 5 5 9 10 9 6 0 10 -7 10 -16z"/>
<path d="M226 558 c3 -10 1 -18 -5 -18 -6 0 -11 -13 -11 -28 0 -28 16 -52 34
-52 5 0 2 6 -9 13 -14 11 -15 16 -5 22 8 5 16 2 22 -9 5 -9 14 -16 19 -16 6 0
7 6 2 13 -4 6 -6 21 -5 32 2 12 0 16 -5 9 -14 -18 -43 -25 -43 -9 0 7 7 15 16
17 13 3 13 5 -1 23 -12 16 -14 17 -9 3z"/>
<path d="M1382 483 c0 -35 -3 -78 -7 -96 -5 -24 -4 -28 4 -17 6 8 11 34 11 57
0 23 4 44 10 48 5 3 6 13 3 23 -6 15 -5 15 10 3 9 -7 17 -10 17 -6 0 4 7 2 15
-5 11 -9 15 -9 15 -1 0 6 -11 16 -25 21 -14 5 -25 16 -25 23 0 8 -6 14 -13 14
-10 0 -14 -18 -15 -64z"/>
<path d="M804 528 c22 -12 131 -12 152 1 19 12 19 12 -1 6 -11 -4 -24 -7 -30
-7 -87 6 -131 6 -121 0z"/>
<path d="M5 510 c-4 -6 -3 -9 2 -8 5 2 21 -7 36 -19 26 -20 27 -22 7 -28 -11
-3 -20 -10 -20 -15 0 -16 21 -22 35 -10 11 9 16 7 25 -9 6 -12 18 -21 26 -21
10 0 4 10 -16 28 l-31 29 52 2 c71 2 76 11 7 11 -38 0 -60 5 -68 16 -20 24
-48 36 -55 24z m60 -70 c-3 -5 -11 -10 -16 -10 -6 0 -7 5 -4 10 3 6 11 10 16
10 6 0 7 -4 4 -10z"/>
<path d="M1362 500 c0 -14 2 -19 5 -12 2 6 2 18 0 25 -3 6 -5 1 -5 -13z"/>
<path d="M828 503 c12 -2 32 -2 45 0 12 2 2 4 -23 4 -25 0 -35 -2 -22 -4z"/>
<path d="M905 471 c-11 -5 -41 -7 -66 -6 -26 1 -52 -1 -59 -5 -7 -4 11 -7 39
-6 28 0 51 -3 51 -8 0 -6 5 -5 12 2 7 7 20 12 29 12 10 0 21 5 24 10 7 12 -2
12 -30 1z"/>
<path d="M5 449 c-11 -17 4 -59 21 -59 14 0 14 2 -1 16 -9 9 -13 24 -10 35 7
20 0 26 -10 8z"/>
<path d="M188 438 c10 -10 7 -15 -10 -26 -17 -10 -18 -12 -4 -7 10 3 27 3 37
0 17 -6 18 -8 4 -22 -18 -18 -13 -28 10 -20 8 4 15 13 15 21 0 16 -42 66 -56
66 -4 0 -3 -5 4 -12z"/>
<path d="M222 438 c3 -7 12 -14 22 -14 15 -2 15 -2 0 3 -14 4 -14 7 -3 14 11
7 10 9 -4 9 -11 0 -17 -6 -15 -12z"/>
<path d="M500 439 c0 -15 69 -81 79 -75 6 4 11 3 11 -3 0 -5 -6 -12 -12 -14
-8 -3 -6 -6 4 -6 13 -1 17 6 16 24 -2 16 -6 21 -12 15 -7 -7 -23 3 -48 27 -21
20 -38 35 -38 32z"/>
<path d="M1272 410 c-2 -42 12 -71 21 -45 4 9 3 13 -2 10 -6 -3 -12 12 -14 32
l-4 38 -1 -35z"/>
<path d="M1595 423 c-20 -15 -20 -15 3 -10 18 4 22 1 22 -19 0 -13 -10 -32
-22 -44 -12 -11 -17 -20 -11 -20 20 0 43 31 43 58 0 42 -12 53 -35 35z"/>
<path d="M71 394 c0 -11 3 -14 6 -6 3 7 2 16 -1 19 -3 4 -6 -2 -5 -13z"/>
<path d="M1578 389 c-10 -5 -18 -17 -18 -25 0 -9 -5 -12 -11 -8 -7 4 -9 2 -5
-7 3 -8 9 -22 12 -31 4 -10 13 -18 20 -18 8 0 14 -7 14 -15 0 -12 -4 -13 -18
-6 -10 5 -24 17 -32 25 -8 10 -27 15 -54 15 l-41 -2 40 -6 c28 -4 39 -11 37
-21 -2 -8 0 -12 3 -8 4 4 19 1 34 -6 26 -14 57 -14 69 0 4 4 -1 4 -10 1 -11
-4 -18 -2 -18 6 0 7 -9 20 -20 30 -23 19 -18 43 14 69 23 19 12 24 -16 7z"/>
<path d="M86 374 c-5 -14 -4 -15 9 -4 12 10 19 10 27 2 18 -18 -9 -39 -59 -47
-41 -6 -43 -6 -43 19 0 13 -4 27 -9 30 -10 6 -7 -65 3 -82 3 -6 0 -13 -6 -16
-21 -8 53 4 93 16 26 7 42 7 55 0 11 -6 13 -12 7 -12 -7 0 -13 -8 -13 -17 0
-15 2 -14 15 3 19 25 19 34 -2 35 -10 0 6 7 35 15 36 10 58 11 70 5 12 -8 13
-10 3 -11 -11 0 -10 -4 3 -19 10 -11 15 -25 11 -30 -3 -6 -1 -11 4 -11 6 0 10
-3 9 -7 -2 -8 14 -67 32 -127 5 -16 7 -33 3 -39 -3 -6 -1 -7 5 -3 7 4 12 1 12
-8 0 -8 3 -22 7 -32 4 -11 3 -15 -4 -11 -6 4 -13 1 -16 -6 -3 -8 3 -13 15 -13
17 0 19 5 13 36 -4 19 -12 49 -19 65 -12 27 -29 93 -41 153 -2 12 -7 28 -12
35 -14 23 -12 39 5 32 11 -4 9 2 -7 19 -30 32 -35 33 -20 4 10 -18 9 -20 -6
-15 -9 4 -19 7 -21 7 -3 0 -2 6 1 13 4 6 0 4 -8 -6 -9 -10 -31 -18 -55 -20
-22 -1 -38 -5 -35 -9 2 -5 -5 -8 -16 -8 -12 0 -21 2 -21 5 0 10 40 45 53 45 6
0 -1 7 -17 15 -37 19 -52 19 -60 -1z m14 -64 c0 -10 -60 -30 -72 -23 -15 8 -8
22 15 26 41 8 57 7 57 -3z"/>
<path d="M983 365 c-3 -9 -3 -19 1 -22 3 -4 6 -1 6 5 0 7 7 12 16 12 8 0 12 5
9 10 -9 15 -25 12 -32 -5z"/>
<path d="M615 320 c-4 -6 -3 -10 2 -9 11 3 37 -8 118 -48 70 -35 125 -49 125
-31 0 5 4 7 8 4 4 -2 14 -1 22 4 10 6 -6 7 -42 4 -39 -4 -58 -2 -58 5 0 6 -3
10 -7 9 -7 -1 -74 28 -145 63 -10 5 -20 4 -23 -1z"/>
<path d="M760 323 c0 -34 57 -55 90 -33 11 7 5 8 -19 3 -28 -5 -37 -2 -52 18
-10 13 -19 19 -19 12z"/>
<path d="M694 311 c6 -9 66 -33 66 -26 0 4 -60 35 -67 35 -2 0 -2 -4 1 -9z"/>
<path d="M95 278 c-16 -5 -37 -12 -45 -14 -13 -5 -12 -7 3 -15 9 -6 14 -16 11
-22 -5 -8 -2 -7 7 1 12 11 12 14 -1 22 -13 9 -13 10 0 10 17 1 80 28 65 28 -5
0 -23 -4 -40 -10z"/>
<path d="M386 252 c3 -18 12 -45 19 -59 7 -14 11 -33 8 -42 -4 -12 -3 -13 5
-3 7 10 13 7 26 -12 9 -14 14 -26 12 -26 -3 0 18 -25 46 -55 l51 -55 57 3 c32
1 56 6 53 10 -3 5 -26 6 -52 3 -30 -4 -51 -2 -61 6 -13 11 -81 93 -118 143
-10 14 -28 54 -41 90 l-11 30 6 -33z"/>
<path d="M350 206 c10 -36 16 -66 14 -69 -2 -2 1 -28 7 -58 7 -30 12 -60 12
-66 0 -7 4 -13 9 -13 10 0 10 -2 -2 40 -6 19 -13 64 -15 100 -5 60 -4 63 10
46 8 -11 15 -15 15 -9 0 14 -25 34 -33 26 -4 -3 -10 8 -13 26 -4 17 -10 34
-15 36 -4 3 1 -24 11 -59z"/>
<path d="M1550 258 c9 -7 15 -21 14 -31 -1 -12 0 -13 3 -2 3 9 17 15 36 16
l32 1 -35 7 c-20 4 -42 11 -50 15 -12 6 -12 5 0 -6z"/>
<path d="M20 242 c0 -12 -5 -31 -10 -44 -8 -16 -7 -48 2 -108 l13 -85 53 -1
c29 0 55 3 57 6 3 4 -19 7 -48 6 l-52 -1 -12 70 c-13 72 -9 130 8 119 6 -3 7
5 3 23 -9 36 -14 42 -14 15z"/>
<path d="M1526 245 c4 -8 -1 -26 -10 -40 -18 -27 -13 -33 10 -11 16 17 19 52
4 61 -6 3 -7 -1 -4 -10z"/>
<path d="M1232 203 c-11 -21 -5 -43 11 -43 8 0 8 3 0 11 -13 13 -6 42 8 33 5
-3 9 0 9 5 0 17 -18 13 -28 -6z"/>
<path d="M1600 180 c8 -5 20 -10 25 -10 6 0 3 5 -5 10 -8 5 -19 10 -25 10 -5
0 -3 -5 5 -10z"/>
<path d="M1460 165 c10 -12 2 -55 -11 -55 -5 0 -6 7 -3 15 11 28 -4 15 -20
-16 -9 -17 -13 -35 -10 -40 8 -14 -15 -49 -34 -50 -14 0 -13 -2 3 -8 16 -7 22
-2 33 22 7 16 11 37 10 45 -2 8 2 17 8 19 7 2 10 -5 7 -20 -3 -14 0 -27 5 -31
6 -3 8 1 6 12 -6 22 17 76 34 79 6 2 12 -3 12 -11 0 -8 3 -21 6 -30 4 -11 1
-16 -10 -16 -9 0 -16 5 -16 11 0 5 -5 7 -10 4 -16 -10 -1 -25 24 -25 13 0 29
-7 36 -15 21 -25 59 -19 71 11 5 15 7 29 5 32 -3 2 -8 -7 -12 -22 -7 -31 -34
-34 -59 -6 -18 20 -29 80 -14 80 5 0 9 5 9 11 0 7 -10 5 -25 -5 -24 -16 -30
-12 -27 15 1 3 -6 6 -13 6 -10 0 -12 -4 -5 -12z"/>
<path d="M100 158 c0 -20 37 -21 44 -1 6 16 -10 17 -20 2 -4 -8 -9 -7 -15 2
-7 11 -9 10 -9 -3z"/>
<path d="M1352 110 c-7 -11 -12 -27 -12 -35 0 -10 -5 -13 -12 -9 -7 4 -8 3 -4
-4 4 -7 2 -12 -5 -12 -7 0 -4 -7 7 -15 10 -8 24 -14 29 -15 6 0 4 4 -4 9 -17
11 -6 45 11 35 10 -6 11 -4 1 7 -19 19 -16 28 7 22 23 -6 27 9 7 25 -9 8 -16
6 -25 -8z"/>
<path d="M128 83 c7 -3 16 -2 19 1 4 3 -2 6 -13 5 -11 0 -14 -3 -6 -6z"/>
<path d="M688 18 c5 -5 16 -8 23 -6 8 3 3 7 -10 11 -17 4 -21 3 -13 -5z"/>
<path d="M240 10 c0 -5 5 -10 11 -10 5 0 7 5 4 10 -3 6 -8 10 -11 10 -2 0 -4
-4 -4 -10z"/>
<path d="M1586 12 c-3 -5 1 -9 9 -9 8 0 15 4 15 9 0 10 -17 10 -24 0z"/>
</g>
</svg>
