<?xml version="1.0" standalone="no"?>
<!DOCTYPE svg PUBLIC "-//W3C//DTD SVG 20010904//EN"
 "http://www.w3.org/TR/2001/REC-SVG-20010904/DTD/svg10.dtd">
<svg version="1.0" xmlns="http://www.w3.org/2000/svg"
 width="1152.000000pt" height="1024.000000pt" viewBox="0 0 1152.000000 1024.000000"
 preserveAspectRatio="xMidYMid meet">
<metadata>
Created by potrace 1.14, written by Peter Selinger 2001-2017
</metadata>
<g transform="translate(0.000000,1024.000000) scale(0.100000,-0.100000)"
fill="#000000" stroke="none">
<path d="M3020 9699 c-1097 -110 -2037 -875 -2335 -1901 -68 -234 -95 -427
-95 -685 0 -755 350 -1528 1045 -2308 367 -412 742 -764 1540 -1445 826 -705
1086 -938 1425 -1279 303 -304 505 -537 687 -791 215 -301 372 -624 413 -850
14 -76 23 -90 60 -90 36 0 45 13 59 90 48 253 223 597 473 930 373 498 841
956 1878 1840 948 807 1308 1142 1710 1590 572 638 912 1278 1021 1920 27 160
37 480 20 641 -111 1058 -898 1960 -1966 2253 -724 198 -1469 79 -2088 -335
-519 -346 -914 -881 -1091 -1479 -30 -100 -4 -42 40 92 82 249 257 567 444
807 305 392 770 724 1221 871 734 240 1509 139 2192 -284 626 -388 1074 -1023
1206 -1709 51 -266 54 -611 7 -877 -141 -804 -645 -1589 -1586 -2474 -314
-295 -556 -509 -1140 -1006 -629 -536 -913 -792 -1240 -1120 -649 -648 -992
-1156 -1105 -1634 -22 -95 -40 -120 -72 -100 -10 6 -22 29 -27 50 -78 355
-247 675 -574 1087 -152 192 -293 348 -532 588 -339 341 -599 574 -1425 1279
-793 678 -1169 1030 -1535 1440 -607 679 -950 1346 -1034 2008 -18 140 -21
421 -6 557 90 809 581 1535 1332 1968 647 374 1402 456 2096 228 454 -149 917
-480 1222 -872 187 -240 361 -557 445 -809 25 -74 45 -128 45 -119 0 28 -78
244 -130 360 -307 687 -892 1223 -1583 1450 -128 42 -311 85 -447 104 -139 20
-440 27 -570 14z"/>
<path d="M2946 9594 c-753 -100 -1428 -517 -1849 -1141 -404 -598 -518 -1331
-314 -2023 199 -675 611 -1285 1364 -2020 276 -270 526 -493 1162 -1038 739
-634 894 -771 1206 -1071 608 -585 1004 -1101 1190 -1551 24 -58 49 -105 55
-105 6 0 31 47 55 105 155 373 456 796 895 1255 359 376 642 632 1635 1482
820 702 1226 1090 1585 1518 695 825 995 1653 884 2435 -124 874 -726 1626
-1579 1977 -344 141 -659 200 -1025 190 -437 -11 -816 -120 -1186 -340 -485
-289 -871 -749 -1087 -1297 -70 -175 -101 -292 -134 -504 -15 -93 -72 -89 -86
5 -42 276 -140 563 -275 804 -399 716 -1033 1173 -1807 1306 -160 28 -529 35
-689 13z m689 -23 c470 -80 866 -273 1242 -603 419 -369 759 -972 824 -1465 6
-48 16 -94 21 -100 6 -7 23 -13 38 -13 15 0 32 6 38 13 5 6 15 53 21 102 63
487 405 1094 826 1465 372 327 772 521 1240 601 173 30 486 37 665 15 379 -46
723 -167 1053 -369 425 -260 764 -630 981 -1070 343 -693 322 -1473 -59 -2228
-253 -501 -603 -953 -1162 -1499 -263 -257 -526 -494 -1028 -923 -797 -682
-1022 -881 -1311 -1158 -645 -618 -1044 -1141 -1225 -1601 -19 -49 -36 -88
-39 -88 -3 0 -20 39 -39 88 -176 450 -575 975 -1196 1573 -312 300 -468 439
-1205 1070 -612 524 -877 760 -1139 1015 -954 926 -1414 1717 -1482 2551 -24
301 20 634 126 943 77 225 252 534 416 736 424 523 1042 870 1705 958 160 22
529 15 689 -13z"/>
</g>
</svg>
