<?xml version="1.0" standalone="no"?>
<!DOCTYPE svg PUBLIC "-//W3C//DTD SVG 20010904//EN"
 "http://www.w3.org/TR/2001/REC-SVG-20010904/DTD/svg10.dtd">
<svg version="1.0" xmlns="http://www.w3.org/2000/svg"
 width="500.000000pt" height="444.000000pt" viewBox="0 0 500.000000 444.000000"
 preserveAspectRatio="xMidYMid meet">
<metadata>
Created by potrace 1.14, written by Peter Selinger 2001-2017
</metadata>
<g transform="translate(0.000000,444.000000) scale(0.100000,-0.100000)"
fill="#000000" stroke="none">
<path d="M1191 4189 c-335 -72 -620 -271 -784 -547 -215 -363 -205 -778 31
-1194 160 -283 390 -525 977 -1028 143 -123 298 -257 345 -299 429 -383 660
-689 714 -943 9 -38 43 -38 52 0 18 82 29 113 64 182 144 286 363 520 1000
1064 470 403 677 606 847 834 230 309 339 642 305 935 -27 233 -112 428 -264
607 -313 367 -832 504 -1280 339 -285 -105 -546 -363 -655 -650 -21 -54 -40
-99 -43 -99 -3 0 -16 30 -29 68 -104 290 -360 560 -635 669 -143 57 -232 75
-396 79 -129 3 -171 0 -249 -17z m499 -23 c244 -68 482 -238 630 -452 63 -91
147 -253 156 -300 8 -44 39 -47 47 -5 11 52 77 184 142 281 279 420 765 602
1241 464 356 -103 667 -399 780 -742 29 -89 54 -240 54 -327 0 -163 -54 -371
-141 -540 -170 -332 -391 -573 -1019 -1111 -428 -366 -612 -539 -770 -724
-141 -166 -255 -362 -284 -490 -16 -70 -36 -72 -51 -5 -46 197 -233 466 -511
735 -142 137 -225 211 -539 480 -539 462 -752 678 -920 935 -124 189 -203 382
-230 564 -19 121 -19 191 0 311 69 460 437 835 920 940 132 29 362 22 495 -14z"/>
<path d="M1232 4156 c-472 -90 -819 -419 -919 -871 -22 -99 -21 -298 1 -405
46 -220 161 -449 331 -660 177 -220 329 -367 802 -772 544 -468 745 -668 902
-901 51 -77 131 -226 131 -245 0 -7 9 -12 20 -12 11 0 20 5 20 12 0 19 80 168
131 245 157 232 357 433 899 898 505 434 681 606 855 840 134 180 234 389 277
576 26 117 28 318 5 424 -64 290 -230 531 -477 696 -92 61 -233 123 -358 156
-86 24 -116 27 -262 27 -147 0 -176 -3 -265 -27 -312 -84 -578 -307 -715 -601
-45 -95 -77 -192 -89 -265 -13 -83 -29 -83 -42 0 -20 124 -94 300 -181 426
-67 98 -195 226 -287 287 -97 65 -229 124 -341 153 -119 31 -326 40 -438 19z
m439 -29 c236 -61 474 -231 617 -440 94 -136 165 -307 187 -449 4 -28 11 -38
25 -38 19 0 21 5 35 92 10 62 45 159 87 243 149 295 408 512 705 592 87 24
116 27 263 27 147 0 176 -3 265 -27 244 -65 476 -221 625 -419 313 -415 283
-922 -83 -1411 -178 -238 -352 -408 -857 -842 -168 -144 -368 -320 -445 -392
-278 -258 -469 -493 -555 -686 -19 -42 -37 -77 -40 -77 -3 0 -21 35 -40 77
-86 193 -277 428 -555 686 -77 72 -279 249 -448 395 -170 145 -368 320 -440
387 -401 372 -623 705 -693 1035 -21 101 -23 296 -5 385 92 446 452 793 913
881 112 21 319 12 439 -19z"/>
</g>
</svg>
