<?xml version="1.0" standalone="no"?>
<!DOCTYPE svg PUBLIC "-//W3C//DTD SVG 20010904//EN"
 "http://www.w3.org/TR/2001/REC-SVG-20010904/DTD/svg10.dtd">
<svg version="1.0" xmlns="http://www.w3.org/2000/svg"
 width="525.000000pt" height="542.000000pt" viewBox="0 0 525.000000 542.000000"
 preserveAspectRatio="xMidYMid meet">
<metadata>
Created by potrace 1.15, written by Peter Selinger 2001-2017
</metadata>
<g transform="translate(0.000000,542.000000) scale(0.100000,-0.100000)"
fill="#000000" stroke="none">
<path d="M0 2710 l0 -2710 993 0 c980 0 993 0 1010 20 9 11 26 20 38 20 13 0
20 6 18 18 -3 32 1 41 22 47 14 5 18 10 11 17 -6 6 -17 6 -30 -1 -27 -14 -28
-14 -47 5 -9 9 -13 24 -10 34 4 14 1 19 -12 18 -53 -1 -108 38 -96 67 5 16 38
29 51 21 4 -2 6 12 4 33 -3 32 -10 41 -50 66 -49 31 -67 33 -183 20 -93 -10
-135 5 -148 53 -6 19 -8 46 -5 58 6 21 4 22 -38 13 -91 -20 -119 -30 -117 -42
4 -29 -4 -36 -58 -52 -130 -38 -149 -55 -55 -48 62 5 97 -12 86 -42 -8 -20
-26 -24 -129 -30 -50 -3 -116 -7 -148 -9 -67 -5 -94 11 -77 45 6 10 10 25 9
32 -1 6 -1 17 0 23 2 15 61 57 85 59 12 2 62 21 111 43 50 22 149 55 221 73
175 43 207 34 184 -52 -14 -50 -8 -59 40 -59 29 0 46 7 66 26 26 27 20 29 -27
10 -24 -10 -52 21 -39 42 43 74 121 95 136 38 5 -23 7 -24 27 -8 11 10 50 46
86 82 58 59 65 69 66 108 1 48 18 66 47 51 19 -10 34 -52 24 -67 -5 -9 4 -42
49 -183 8 -26 15 -55 15 -65 0 -9 14 -42 30 -71 31 -55 33 -86 5 -97 -8 -3
-22 2 -31 12 -25 24 -74 133 -74 162 0 15 -5 31 -11 37 -10 10 -17 33 -18 66
-1 13 -12 6 -42 -27 -23 -25 -61 -57 -85 -72 l-44 -28 48 -26 c89 -49 167
-108 233 -176 106 -111 109 -127 31 -182 l-47 -34 70 5 c39 3 135 23 215 45
80 23 182 46 228 53 70 10 89 17 123 45 38 32 42 33 103 27 74 -7 156 10 204
42 43 29 106 111 99 129 -6 15 135 305 154 317 17 10 37 1 44 -20 3 -10 -22
-71 -60 -146 -35 -71 -63 -130 -62 -131 2 -2 87 4 357 25 156 12 454 7 520 -9
102 -25 104 -25 90 1 -9 17 -11 55 -6 139 3 64 8 127 11 140 3 14 10 63 16
110 19 153 31 186 66 173 16 -6 27 -45 19 -70 -3 -10 -10 -56 -16 -103 -5 -47
-12 -96 -15 -110 -3 -14 -8 -81 -12 -149 -4 -77 -11 -127 -18 -135 -10 -9 -10
-17 1 -38 31 -60 -21 -88 -130 -69 -39 6 -102 12 -141 12 -95 2 -729 -49 -759
-61 -25 -9 -69 -64 -73 -90 -2 -16 -48 -60 -63 -60 -5 0 -15 6 -22 14 -26 25
-70 7 -113 -46 -49 -60 -69 -73 -87 -55 -16 16 -95 16 -125 -1 -12 -7 -39 -16
-60 -21 -23 -5 473 -9 1265 -10 l1302 -1 0 534 0 534 -31 6 c-17 3 -55 6 -83
6 -28 0 -94 12 -145 25 -52 14 -105 25 -118 25 -12 0 -65 13 -116 30 -52 16
-116 34 -143 40 -27 5 -89 19 -138 30 -49 11 -91 19 -92 17 -2 -2 -10 -29 -19
-62 -8 -32 -20 -62 -27 -66 -16 -10 -36 0 -43 22 -7 21 9 105 28 149 6 14 10
29 8 34 -3 15 30 106 40 107 5 1 16 2 24 2 8 0 19 -1 24 -2 16 -2 21 -35 12
-68 l-9 -32 56 -11 c32 -6 107 -24 167 -40 61 -15 137 -35 170 -44 144 -37
286 -65 358 -70 l77 -6 0 2130 0 2130 -2625 0 -2625 0 0 -2710z m2284 2545
c16 -16 13 -58 -4 -63 -6 -2 -8 -7 -5 -12 3 -5 -2 -15 -10 -24 -14 -14 -11
-20 28 -59 23 -24 48 -46 55 -48 7 -2 14 -14 17 -27 2 -12 6 -26 10 -31 3 -5
-2 -16 -11 -25 -20 -21 -42 -9 -89 47 -36 43 -92 84 -102 74 -10 -11 9 -48 22
-43 20 7 63 -30 87 -77 11 -23 28 -47 37 -53 10 -8 14 -24 13 -49 -2 -20 1
-34 6 -31 15 9 77 -40 97 -78 11 -20 28 -39 37 -42 10 -3 27 -22 38 -42 11
-21 19 -30 20 -20 0 23 28 48 45 42 8 -3 17 -14 20 -25 4 -10 13 -19 20 -19
29 0 64 -24 81 -55 15 -28 16 -37 5 -63 -19 -44 -36 -46 -76 -7 -19 19 -36 35
-39 35 -2 0 4 -23 14 -51 18 -49 18 -79 -1 -79 -6 0 -5 -8 1 -19 14 -27 -13
-55 -40 -41 -28 15 -50 51 -50 81 0 35 -26 58 -35 30 -7 -22 -27 -32 -43 -22
-11 7 -83 193 -84 216 0 6 1 17 3 25 2 8 -3 16 -11 16 -8 1 -20 2 -25 3 -6 0
-26 26 -44 56 -18 30 -37 55 -42 55 -4 0 -14 6 -22 14 -12 13 -16 12 -27 -9
-29 -54 -70 -30 -70 40 0 35 -3 43 -15 39 -11 -5 -12 -11 -4 -25 6 -13 6 -25
-1 -38 -5 -11 -10 -31 -10 -45 0 -13 -7 -32 -16 -41 -13 -13 -14 -21 -6 -40
14 -30 -9 -60 -36 -47 -24 12 -36 9 -56 -10 -22 -22 -21 -22 -45 3 -21 23 -20
24 -35 -42 -6 -28 -27 -42 -50 -33 -18 7 -40 59 -33 78 3 8 3 17 0 20 -4 3
-19 -17 -35 -44 -16 -28 -33 -50 -38 -51 -6 -1 -19 -1 -30 -1 -33 0 -38 1 -44
17 -6 17 19 82 41 107 9 10 13 25 9 34 -7 17 37 103 54 105 54 7 100 -4 100
-25 1 -6 8 1 16 17 8 15 12 32 9 37 -11 18 25 117 53 142 37 35 65 48 81 38
16 -9 51 22 57 53 2 11 11 25 20 30 8 5 32 24 51 43 32 31 96 72 115 74 4 0
13 -7 22 -15z m256 -88 c0 -5 10 -7 22 -4 28 8 75 -13 116 -51 26 -25 31 -36
26 -56 -3 -14 -2 -27 2 -27 53 -7 69 -7 74 2 4 5 16 11 28 14 12 2 26 6 31 10
19 11 117 -37 154 -76 31 -33 36 -43 27 -59 -6 -12 -7 -20 -1 -20 18 0 73 -81
75 -111 3 -36 -19 -63 -42 -54 -12 5 -12 1 3 -15 10 -11 32 -24 49 -29 17 -5
39 -12 50 -16 16 -7 17 -5 8 12 -6 11 -9 23 -6 26 4 3 -3 18 -15 32 -19 25
-19 30 -6 61 12 30 12 36 0 40 -36 14 -27 57 17 80 l30 15 67 -68 c37 -37 78
-75 91 -83 12 -8 28 -21 34 -28 6 -7 33 -34 60 -60 26 -26 57 -64 67 -84 11
-21 31 -45 45 -54 28 -19 57 -68 46 -78 -3 -4 1 -4 10 -1 8 3 23 -1 32 -10 14
-15 18 -15 31 -1 9 8 22 13 31 9 18 -7 46 -58 36 -67 -3 -4 1 -4 10 -1 16 6
16 9 2 30 -13 20 -13 24 1 38 22 23 66 5 89 -36 11 -18 35 -48 55 -68 43 -43
61 -78 137 -264 53 -131 114 -333 114 -382 0 -11 11 -52 23 -90 22 -64 23 -71
9 -101 -20 -41 -38 -47 -76 -22 -17 11 -43 28 -59 37 -30 20 -39 41 -42 93 -1
19 -8 48 -15 63 -11 23 -16 26 -25 15 -16 -22 -52 -39 -69 -32 -14 5 -20 18
-14 27 1 1 -4 12 -10 24 -10 17 -9 25 4 37 9 9 20 13 26 10 7 -5 9 1 5 15 -3
13 1 28 11 37 20 20 17 97 -4 130 -9 13 -13 28 -9 33 3 6 0 8 -8 5 -15 -5 -50
23 -43 34 2 4 -2 13 -10 20 -8 7 -14 10 -14 6 0 -3 -12 1 -26 11 -24 16 -25
16 -15 -2 5 -11 6 -25 1 -32 -5 -9 3 -25 24 -48 43 -48 48 -59 33 -75 -14 -14
-15 -40 -3 -69 4 -10 0 -23 -10 -33 -18 -19 -13 -22 -102 49 -60 48 -64 55
-51 95 10 28 20 35 43 31 9 -2 26 18 26 29 0 3 -16 14 -36 25 -46 25 -59 48
-38 70 9 9 24 13 32 10 9 -3 -8 19 -36 49 -51 54 -58 78 -26 90 13 5 13 9 -1
30 -14 22 -14 25 0 40 12 12 21 13 35 6 15 -8 18 -7 14 4 -6 16 -62 27 -94 19
l-21 -6 21 -19 c23 -22 26 -41 7 -60 -8 -7 -12 -18 -10 -24 6 -17 -25 -44 -42
-38 -19 8 -19 -10 -1 -28 20 -21 65 -138 59 -154 -10 -25 -40 -36 -56 -19 -9
8 -17 20 -19 27 -3 9 -9 8 -22 -5 -19 -18 -32 -15 -88 25 -25 17 -28 18 -46 2
-19 -16 -19 -17 -1 -35 15 -15 17 -24 8 -46 -9 -26 -25 -42 -40 -43 -6 0 -41
29 -80 65 -9 9 -23 13 -32 9 -10 -3 -29 7 -52 28 -52 48 -55 93 -7 103 22 4
56 -20 47 -34 -6 -10 43 -56 51 -48 4 3 15 2 25 -3 35 -19 27 7 -17 53 -48 51
-51 58 -29 81 14 14 13 19 -14 56 -30 42 -32 64 -4 74 10 4 28 -7 49 -30 50
-52 57 -69 38 -89 -15 -15 -15 -18 11 -45 24 -25 29 -27 42 -14 11 11 19 12
36 2 14 -7 6 6 -20 35 -27 29 -40 52 -37 62 3 8 10 15 15 15 5 0 8 16 6 36 -8
65 38 78 77 23 17 -25 12 -46 -15 -54 -16 -5 -18 -10 -8 -21 13 -15 34 -20 24
-5 -8 14 24 42 38 34 7 -4 -5 14 -26 40 -22 26 -40 54 -41 62 -1 8 -10 21 -19
27 -9 7 -23 30 -32 50 -13 33 -13 38 1 52 13 13 19 14 37 4 12 -7 28 -13 35
-14 8 -1 16 -5 19 -8 3 -3 13 2 22 11 12 12 13 17 3 21 -7 2 -21 20 -31 40
-20 39 -71 93 -71 75 0 -24 -34 -23 -70 2 -50 35 -55 32 -25 -19 24 -41 24
-45 9 -60 -14 -15 -19 -15 -38 -3 -18 12 -23 12 -35 0 -12 -13 -10 -21 8 -53
19 -35 20 -40 5 -54 -8 -9 -18 -16 -20 -16 -11 0 -92 89 -98 108 -4 10 -16 24
-29 30 -12 7 -32 19 -43 27 -20 15 -22 14 -27 -4 -4 -15 17 -44 84 -115 87
-94 98 -117 62 -130 -16 -6 -85 30 -92 49 -2 5 -23 29 -45 51 -23 23 -46 50
-52 60 -9 16 -14 17 -27 6 -13 -12 -10 -18 29 -54 59 -54 68 -72 48 -92 -14
-14 -13 -18 3 -41 10 -13 25 -27 35 -30 9 -3 19 -12 22 -21 7 -19 -31 -57 -51
-50 -8 3 -23 6 -33 6 -25 0 -49 26 -44 47 5 19 -21 53 -59 78 -12 8 -30 27
-40 44 -15 26 -16 31 -2 45 9 8 21 13 29 10 7 -3 13 2 13 11 0 10 -6 14 -15
10 -19 -7 -116 89 -109 109 4 9 -3 16 -21 19 -15 3 -34 18 -44 34 -17 30 -13
49 12 55 8 2 20 8 27 15 7 6 22 9 33 6 19 -5 18 -2 -7 24 -15 17 -38 41 -50
54 -12 13 -32 32 -43 42 -11 10 -18 22 -14 28 3 6 7 22 9 36 1 14 7 28 13 32
6 3 -10 24 -38 47 -27 23 -66 61 -88 86 -36 43 -40 45 -63 32 -31 -17 -32 -17
-57 4 -25 22 -43 64 -33 80 16 26 55 30 94 9 20 -11 37 -25 37 -30z m-97 -192
c9 -9 17 -11 19 -4 13 40 113 -8 169 -82 63 -84 72 -104 53 -123 -47 -48 -76
-37 -114 44 -21 44 -27 50 -47 46 -15 -4 -28 1 -42 15 -15 16 -23 19 -38 11
-24 -13 -36 -6 -57 35 -16 31 -15 34 4 53 24 24 34 25 53 5z m-779 -81 c9 -8
16 -18 16 -20 0 -3 -29 -35 -63 -72 -35 -37 -72 -81 -82 -97 -41 -65 -117
-164 -131 -169 -7 -3 -20 2 -29 10 -13 14 -13 19 5 53 10 21 30 51 43 67 13
16 40 54 60 85 37 57 137 159 156 159 5 0 17 -7 25 -16z m31 -353 c3 -9 1 -31
-5 -50 -7 -25 -6 -37 5 -47 16 -17 27 -79 29 -172 1 -77 -8 -118 -27 -125 -32
-12 -42 11 -43 102 -1 69 -5 93 -18 106 -16 16 -18 30 -20 128 -1 54 1 59 28
74 24 13 43 7 51 -16z m-321 -188 c4 -9 0 -41 -8 -72 -53 -205 -51 -190 -28
-212 26 -23 27 -40 7 -79 -9 -17 -15 -31 -14 -32 1 -2 -4 -22 -10 -46 -16 -57
-4 -271 16 -291 8 -8 11 -20 7 -30 -11 -24 -8 -49 11 -116 18 -61 22 -101 26
-320 3 -120 11 -148 41 -144 39 5 55 -19 37 -52 -8 -16 -7 -24 9 -37 27 -24
45 -61 38 -79 -9 -22 20 -101 49 -135 14 -17 22 -35 19 -40 -4 -7 -2 -8 4 -4
12 7 62 -35 62 -53 0 -5 -7 -17 -16 -26 -10 -10 -14 -26 -11 -43 14 -73 51
-192 79 -251 17 -36 30 -78 29 -94 -1 -15 6 -39 15 -52 9 -14 17 -35 18 -47 1
-15 8 -22 24 -23 13 -1 28 -8 32 -15 10 -16 -7 -57 -28 -65 -26 -10 -142 81
-142 112 0 8 -13 31 -30 50 -33 37 -37 55 -16 76 9 8 11 19 6 27 -5 8 -4 22 1
32 6 10 7 23 3 29 -8 14 -53 170 -65 228 -5 24 -14 50 -20 58 -7 7 -12 21 -13
31 -2 20 -38 82 -47 82 -12 0 -79 72 -79 83 1 7 7 23 15 37 22 38 18 54 -21
96 -56 60 -65 78 -63 125 5 114 -3 333 -12 357 -11 30 -28 100 -35 147 -10 69
-25 292 -21 314 3 14 -1 30 -8 37 -10 10 -9 33 6 117 9 57 22 121 28 143 5 21
18 70 27 108 10 37 24 74 31 82 16 15 39 9 47 -13z m1729 -559 c81 -18 93 -23
159 -68 57 -38 63 -50 37 -75 l-20 -18 23 -7 c37 -9 72 -6 91 9 31 23 64 -4
50 -40 -8 -21 -56 -45 -91 -45 -32 0 -137 34 -157 50 -9 8 -33 6 -80 -5 -96
-22 -150 -20 -175 7 -11 12 -20 16 -20 10 0 -23 -46 -36 -80 -22 -29 12 -34
20 -31 47 1 7 -5 10 -12 7 -18 -7 -48 22 -41 39 6 16 80 79 113 97 22 11 91
25 144 29 10 0 50 -6 90 -15z m573 -80 c19 -33 22 -35 36 -20 34 34 67 38 106
14 20 -12 43 -24 52 -25 21 -3 62 -53 56 -69 -6 -16 10 -27 43 -29 13 0 29 -9
35 -20 19 -33 66 -74 80 -69 18 7 47 -23 40 -41 -4 -8 -2 -15 4 -15 18 0 22
-29 6 -45 -24 -24 -54 -18 -89 19 -36 38 -56 35 -62 -9 -3 -22 10 -40 76 -107
55 -55 86 -78 96 -74 9 3 34 -3 55 -14 22 -11 47 -20 56 -20 50 0 89 -54 122
-170 13 -45 7 -161 -10 -171 -7 -4 -17 -34 -24 -65 -9 -47 -9 -61 2 -72 18
-17 18 -21 -5 -55 -18 -27 -18 -30 0 -95 11 -36 17 -85 15 -107 -5 -55 -48
-138 -80 -153 -14 -6 -33 -23 -42 -37 -9 -15 -40 -38 -68 -52 -28 -13 -63 -37
-77 -51 l-26 -27 18 -37 c17 -33 17 -38 3 -52 -27 -27 -43 -18 -73 43 -14 26
-20 52 -17 66 4 15 -1 31 -14 46 -16 19 -19 21 -20 7 0 -23 -28 -48 -45 -42
-12 5 -42 70 -38 84 1 3 5 13 8 22 6 15 3 17 -24 12 -62 -13 -108 18 -75 51
14 13 14 17 0 31 -20 19 -20 29 0 48 10 11 21 13 32 7 18 -9 84 -3 78 8 -2 3
0 29 3 58 4 30 3 60 -2 70 -12 21 -17 236 -6 254 4 7 4 20 -1 29 -11 20 1 40
26 44 14 2 19 11 19 38 1 38 19 62 59 78 22 8 30 5 51 -16 14 -14 23 -29 20
-34 -3 -4 12 -6 33 -4 47 4 63 -6 67 -42 3 -31 -20 -80 -42 -88 -7 -3 -25 7
-39 22 l-26 27 7 -25 c3 -14 6 -31 5 -37 -2 -39 -1 -51 8 -80 8 -26 8 -36 -4
-48 -14 -13 -14 -17 0 -31 34 -33 6 -74 -51 -74 -33 0 -35 -2 -30 -26 2 -14
-2 -31 -10 -40 -8 -8 -10 -14 -5 -14 5 0 16 9 23 20 8 11 39 29 69 40 66 24
110 15 129 -27 14 -30 0 -77 -25 -87 -21 -8 -46 23 -38 48 6 18 3 17 -20 -7
-20 -22 -30 -26 -43 -18 -11 6 -24 6 -34 0 -15 -7 -16 -14 -6 -38 9 -23 7 -34
-6 -55 -19 -29 -22 -56 -7 -56 18 0 62 -49 55 -61 -15 -23 93 42 109 66 9 14
28 31 42 37 38 18 65 77 60 135 -7 74 -20 100 -59 113 -20 6 -38 17 -41 25 -5
15 18 45 35 45 21 0 52 86 58 164 4 46 12 81 19 84 21 7 25 68 7 104 -9 18
-18 42 -21 52 -2 11 -10 26 -18 34 -11 12 -14 10 -19 -10 -7 -25 -43 -48 -77
-48 -33 0 -64 21 -105 72 -22 27 -56 66 -76 86 -40 41 -99 141 -93 157 2 6 -4
20 -14 31 -10 11 -26 31 -36 46 -15 23 -15 27 -1 41 13 14 13 18 -8 42 -53 64
-76 85 -81 76 -3 -5 4 -18 17 -28 35 -27 39 -40 20 -58 -14 -14 -15 -22 -6
-46 9 -23 8 -32 -4 -44 -23 -23 -50 -2 -77 59 -24 54 -55 91 -37 44 5 -13 17
-48 26 -78 10 -30 29 -71 42 -90 12 -19 23 -39 23 -45 0 -6 16 -43 35 -82 19
-39 35 -76 35 -81 0 -5 6 -15 14 -21 11 -10 16 -8 21 8 7 22 27 32 42 23 16
-11 53 -101 47 -117 -9 -23 -33 -26 -54 -5 -18 18 -19 18 -25 0 -7 -21 -27
-31 -42 -22 -9 6 -78 143 -182 364 -23 47 -41 95 -41 107 0 11 -16 50 -35 85
-32 59 -33 66 -19 80 8 9 20 16 25 16 13 0 49 -38 49 -52 0 -6 3 -9 6 -5 3 3
-6 25 -20 50 -30 51 -31 60 -11 81 21 20 36 13 61 -30z m-1453 -46 c43 -17 82
-39 88 -49 5 -11 6 -19 2 -19 -4 0 3 -9 15 -20 26 -25 27 -33 6 -54 -10 -10
-24 -14 -39 -10 -13 3 -32 1 -43 -5 -14 -7 -24 -7 -38 3 -11 9 -25 11 -34 6
-31 -16 -170 -33 -193 -23 -29 13 -71 1 -99 -30 -13 -14 -48 -39 -80 -56 -51
-29 -58 -30 -72 -16 -12 13 -13 21 -6 36 6 10 16 19 21 19 6 0 9 6 6 14 -3 8
2 25 12 38 9 13 23 38 31 56 16 41 64 73 179 117 101 40 126 39 244 -7z m-682
-227 c17 -2 16 -36 0 -118 -25 -121 -59 -229 -77 -247 -32 -33 -61 7 -44 60
10 28 9 37 -5 50 -21 21 -14 155 11 207 22 47 46 57 115 48z m74 -287 c14 -14
14 -19 2 -38 -8 -11 -17 -51 -21 -88 -3 -37 -9 -74 -12 -82 -9 -22 -32 -27
-49 -9 -13 12 -15 29 -10 87 9 103 12 114 43 130 15 9 28 15 29 16 1 0 9 -7
18 -16z m1105 -45 c27 -11 51 -27 54 -35 6 -15 -2 -43 -13 -45 -3 0 -17 -2
-31 -5 -92 -15 -106 -15 -125 -1 -18 14 -23 13 -49 -6 -16 -11 -37 -21 -46
-22 -10 -1 -25 -9 -35 -18 -14 -15 -14 -18 -2 -23 24 -9 28 -32 9 -50 -9 -9
-17 -24 -18 -32 -2 -9 -10 -19 -19 -24 -8 -5 -13 -14 -9 -19 9 -16 -4 -56 -22
-63 -23 -9 -84 30 -84 54 0 15 31 40 42 34 7 -4 8 4 4 23 -5 22 -1 38 17 65
l25 35 -34 16 c-19 9 -40 14 -48 11 -32 -12 -82 38 -70 71 15 37 40 36 124 -7
72 -36 83 -39 91 -26 17 31 127 85 177 87 7 1 35 -8 62 -20z m146 -34 c3 -13
-2 -37 -11 -54 -9 -18 -13 -40 -10 -50 3 -11 -1 -26 -10 -35 -14 -14 -20 -14
-43 -2 -23 12 -31 12 -59 -2 -20 -9 -33 -23 -33 -34 0 -21 48 -70 60 -63 11 7
40 -23 40 -41 0 -8 4 -13 9 -9 13 7 41 -23 41 -45 0 -35 75 -42 103 -9 17 19
20 20 40 5 12 -9 32 -21 44 -28 27 -13 36 -35 20 -48 -58 -49 -52 -48 -220
-55 -89 -3 -189 -11 -222 -16 -33 -5 -90 -9 -126 -9 -36 0 -93 -3 -127 -6 -52
-6 -61 -10 -66 -29 -7 -28 -31 -39 -48 -22 -24 24 -49 27 -81 11 -42 -22 -42
-21 -24 -39 15 -14 14 -20 -9 -65 -13 -27 -29 -52 -34 -55 -5 -3 -7 -12 -4
-19 3 -7 -11 -29 -31 -49 -30 -30 -40 -35 -55 -27 -24 13 -30 30 -18 53 5 10
11 27 13 38 2 11 15 29 28 39 14 11 27 33 30 49 5 22 14 32 32 37 l26 6 -21
20 c-17 16 -18 22 -8 41 12 21 14 27 17 54 3 37 109 55 160 28 16 -8 31 -12
33 -9 3 2 76 9 164 15 87 5 198 13 247 16 l87 5 -22 23 c-13 13 -40 30 -60 38
-40 17 -63 49 -55 78 3 10 2 18 -2 17 -20 -2 -30 4 -36 22 -7 23 12 100 25
100 5 0 19 10 30 22 11 12 40 32 63 43 26 12 47 32 56 50 8 17 19 33 24 37 16
10 37 -2 43 -27z m308 -330 c8 -9 18 -15 21 -15 16 4 28 -9 30 -32 2 -14 6
-37 11 -50 11 -36 8 -110 -6 -118 -15 -9 -60 8 -61 24 -1 6 0 28 1 49 1 27 -6
48 -22 70 -38 50 -39 54 -22 71 19 20 29 20 48 1z m-397 -356 c25 -15 45 -62
37 -84 -7 -17 -32 -27 -46 -18 -6 3 -8 1 -4 -5 3 -6 -1 -17 -9 -26 -30 -30
-95 27 -79 69 4 9 0 15 -9 15 -21 0 -26 -21 -11 -45 18 -27 4 -46 -36 -49 -31
-2 -65 18 -56 33 3 4 -4 8 -15 8 -10 1 -19 -2 -19 -7 0 -8 -36 -24 -50 -22 -3
0 -13 -4 -22 -9 -11 -6 -22 -4 -32 7 -21 21 -20 27 10 63 14 17 23 35 20 40
-9 13 3 39 21 45 8 4 30 -3 48 -14 l33 -21 7 21 c3 11 9 20 13 21 4 0 22 2 40
5 19 2 41 0 50 -5 10 -6 20 -4 30 6 12 12 17 12 36 0 11 -8 31 -20 43 -28z
m340 -5 c61 -11 95 -51 67 -79 -9 -9 -24 -13 -34 -10 -16 5 -18 1 -16 -30 3
-38 -14 -65 -40 -65 -24 0 14 -57 43 -65 13 -3 29 -17 35 -30 6 -14 19 -27 28
-30 9 -3 22 -16 28 -30 13 -29 -7 -56 -37 -50 -16 3 -19 -1 -16 -23 6 -53 -27
-89 -62 -67 -14 10 -23 11 -25 3 -2 -6 -13 -11 -23 -12 -11 -1 -29 -6 -40 -13
-11 -6 -24 -12 -30 -12 -27 -3 -45 -14 -45 -26 0 -28 -28 -45 -59 -34 -16 6
-32 17 -35 25 -6 17 3 44 15 44 5 0 9 7 9 16 0 8 -4 13 -10 9 -5 -3 -42 11
-82 32 -40 21 -77 38 -83 39 -5 1 -15 2 -22 3 -21 2 -24 38 -6 75 9 20 21 36
25 36 5 0 8 8 7 18 -3 31 1 40 17 46 18 7 80 -30 89 -52 7 -18 -31 -53 -50
-46 -11 5 -13 2 -9 -10 8 -22 36 -20 57 4 9 11 24 20 33 20 12 0 14 6 9 29 -4
19 -1 34 10 44 21 22 41 12 55 -26 l12 -32 10 28 c9 24 19 32 41 28 16 -2 6
21 -23 50 -27 29 -28 33 -16 58 8 14 28 34 44 44 28 16 32 16 46 1 15 -14 17
-14 32 1 14 14 15 18 2 33 -8 9 -18 22 -22 29 -8 14 22 46 35 37 5 -3 21 -8
36 -10z m-703 -449 c12 -12 20 -13 35 -6 30 17 50 3 61 -43 6 -22 13 -46 15
-53 4 -13 -20 -43 -35 -43 -5 0 -16 7 -24 15 -9 9 -21 15 -28 14 -28 -3 -37 2
-57 35 -25 40 -26 59 -5 80 19 20 19 20 38 1z m1417 -116 c18 -30 -50 -125
-204 -284 -71 -73 -250 -309 -299 -395 -25 -42 -84 -91 -103 -84 -34 14 -28
29 54 144 29 40 37 59 30 71 -10 20 13 57 114 176 39 47 72 93 74 102 1 9 10
20 20 26 36 20 154 147 149 161 -6 16 19 44 40 44 8 0 14 4 14 8 0 5 9 18 20
30 22 23 77 24 91 1z m-1876 -101 c51 -77 87 -147 90 -173 2 -11 8 -47 14 -80
6 -33 14 -116 18 -185 4 -80 11 -133 20 -146 12 -19 12 -24 -3 -39 -12 -12
-18 -37 -20 -83 -3 -69 -15 -87 -46 -71 -25 14 -31 48 -21 126 10 76 -1 307
-18 393 -6 30 -12 65 -14 78 -2 12 -13 30 -25 40 -13 10 -23 27 -24 38 -2 17
-43 94 -52 94 -5 0 -84 -136 -110 -190 -12 -25 -30 -52 -40 -61 -28 -25 -142
-83 -236 -123 -135 -55 -319 -144 -352 -170 -17 -13 -81 -49 -141 -80 -116
-60 -237 -127 -294 -163 -35 -22 -56 -21 -65 2 -13 35 37 69 313 212 57 30
118 65 135 78 37 28 235 126 321 159 78 30 245 113 267 133 10 9 45 67 79 130
70 129 107 168 142 152 12 -5 40 -37 62 -71z m1102 -1210 c9 -20 3 -83 -12
-145 -6 -26 -37 -45 -59 -37 -13 5 -32 40 -29 54 3 13 15 88 17 108 4 25 3 25
30 39 25 14 41 8 53 -19z"/>
</g>
</svg>
