<?xml version="1.0" standalone="no"?>
<!DOCTYPE svg PUBLIC "-//W3C//DTD SVG 20010904//EN"
 "http://www.w3.org/TR/2001/REC-SVG-20010904/DTD/svg10.dtd">
<svg version="1.0" xmlns="http://www.w3.org/2000/svg"
 width="2002.000000pt" height="2002.000000pt" viewBox="0 0 2002.000000 2002.000000"
 preserveAspectRatio="xMidYMid meet">
<metadata>
Created by potrace 1.15, written by Peter Selinger 2001-2017
</metadata>
<g transform="translate(0.000000,2002.000000) scale(0.100000,-0.100000)"
fill="#000000" stroke="none">
<path d="M5511 19858 c-1 -12 6 -18 22 -18 18 0 19 -2 7 -10 -13 -9 -13 -10 0
-10 8 0 28 -16 43 -35 15 -19 34 -35 42 -35 8 0 15 -9 15 -20 0 -11 5 -20 10
-20 6 0 10 -6 10 -13 0 -7 14 -27 30 -45 17 -18 30 -37 30 -43 0 -5 4 -9 8 -9
19 0 84 -163 107 -270 5 -19 9 -197 10 -395 2 -373 10 -479 56 -750 18 -107
84 -390 109 -470 52 -165 76 -234 87 -255 7 -14 13 -31 13 -38 0 -7 4 -20 9
-30 5 -9 14 -30 21 -47 30 -72 39 -92 57 -132 10 -24 22 -43 26 -43 5 0 7 3 5
8 -2 4 -12 24 -21 45 -16 34 -26 59 -55 127 -5 14 -17 41 -26 62 -9 20 -16 42
-16 50 0 8 -4 18 -9 24 -7 8 -21 47 -81 239 -26 82 -91 364 -109 470 -48 281
-54 367 -56 745 -1 201 -5 381 -9 400 -19 87 -92 270 -108 270 -4 0 -8 5 -8
10 0 6 -9 19 -20 30 -11 11 -20 28 -20 38 0 14 -2 15 -10 2 -8 -12 -10 -11
-10 8 0 12 -4 22 -10 22 -5 0 -10 4 -10 9 0 13 -105 121 -118 121 -6 0 -13 6
-15 13 -3 7 -6 5 -6 -5z"/>
<path d="M14283 19704 c-3 -9 -16 -27 -29 -41 -13 -14 -30 -47 -39 -74 -9 -27
-21 -51 -26 -55 -36 -22 -82 -230 -77 -349 8 -226 0 -577 -17 -720 -26 -231
-93 -568 -145 -730 -6 -16 -24 -73 -40 -125 -17 -52 -37 -109 -45 -127 -8 -17
-15 -36 -15 -42 0 -6 -4 -19 -9 -29 -5 -9 -13 -28 -19 -42 -20 -49 -44 -106
-63 -146 -10 -22 -19 -44 -19 -48 0 -14 -110 -227 -130 -253 -11 -14 -20 -32
-20 -39 0 -8 -4 -14 -10 -14 -5 0 -10 -4 -10 -10 0 -18 25 0 40 29 81 154 150
297 150 311 0 10 7 23 15 30 8 7 15 17 15 22 0 6 7 26 16 46 9 21 21 48 26 62
6 14 14 33 19 42 5 10 9 23 9 29 0 6 7 25 15 42 12 27 31 83 85 252 19 60 68
263 89 365 58 289 88 638 76 910 -9 231 -7 268 16 368 21 86 98 261 129 292 9
9 19 27 22 38 7 26 0 30 -9 6z"/>
<path d="M4293 19638 c-11 -22 -29 -59 -58 -123 -73 -160 -86 -709 -30 -1260
27 -266 96 -648 156 -865 56 -199 137 -456 165 -517 8 -17 14 -37 14 -45 0 -8
4 -18 8 -24 5 -5 17 -31 27 -59 9 -27 24 -65 31 -82 8 -18 21 -50 29 -70 9
-21 21 -46 26 -57 6 -10 17 -35 24 -55 7 -20 29 -63 49 -95 20 -33 36 -68 36
-78 0 -10 4 -18 10 -18 6 0 6 9 0 24 -17 45 -59 124 -70 131 -5 3 -10 13 -10
22 0 9 -9 35 -19 57 -10 23 -26 57 -34 76 -8 19 -24 55 -34 80 -11 25 -26 63
-34 85 -7 22 -17 44 -21 49 -4 6 -8 16 -8 24 0 8 -7 28 -14 45 -26 57 -109
317 -165 517 -113 407 -191 1019 -191 1485 1 326 23 527 71 632 10 23 19 48
19 56 0 8 9 22 20 32 11 10 20 24 20 31 0 7 6 15 13 17 8 4 7 6 -3 6 -8 1 -21
-9 -27 -21z"/>
<path d="M15655 19622 c19 -13 84 -156 102 -222 16 -58 18 -114 17 -515 0
-402 -3 -470 -23 -635 -45 -375 -98 -637 -201 -1005 -35 -123 -74 -244 -90
-281 -11 -23 -20 -49 -20 -56 -1 -7 -9 -31 -20 -53 -11 -22 -19 -46 -20 -53 0
-7 -4 -20 -9 -30 -8 -16 -22 -47 -42 -97 -18 -44 -52 -122 -70 -161 -10 -22
-19 -48 -19 -57 0 -9 -5 -19 -11 -22 -6 -4 -42 -71 -80 -149 -38 -77 -73 -146
-79 -153 -14 -17 -13 -23 4 -17 8 3 22 26 31 52 18 46 81 173 130 261 14 24
25 52 25 61 0 10 7 23 15 30 8 7 15 17 15 22 0 5 9 30 21 56 11 26 24 56 28
67 20 50 34 81 42 97 5 10 9 23 9 30 0 7 6 25 14 39 7 14 16 38 20 54 4 16 16
48 26 71 16 35 56 158 90 279 76 270 118 453 154 675 59 359 76 581 76 1017 0
420 -14 524 -84 627 -14 21 -26 47 -26 57 0 12 -7 19 -17 19 -10 0 -14 -4 -8
-8z"/>
<path d="M9865 18474 c-16 -2 -66 -9 -110 -15 -94 -12 -301 -62 -350 -84 -19
-8 -52 -22 -72 -31 -91 -40 -188 -88 -191 -96 -2 -4 -10 -8 -18 -8 -8 0 -14
-8 -13 -17 0 -11 3 -13 6 -5 2 6 9 12 14 12 6 0 19 9 31 20 12 11 28 20 36 20
8 0 35 11 61 24 25 14 63 32 84 40 20 9 53 23 72 31 42 19 246 70 346 87 96
16 372 16 474 -1 102 -16 307 -68 343 -87 15 -7 32 -14 38 -14 7 0 25 -7 40
-15 16 -8 36 -15 45 -15 9 0 22 -7 29 -14 6 -8 27 -20 46 -26 19 -6 34 -16 34
-21 0 -5 4 -9 10 -9 25 0 -7 28 -63 54 -34 16 -75 35 -91 42 -16 8 -34 14 -40
14 -6 0 -23 7 -38 14 -37 19 -212 64 -318 82 -85 14 -349 26 -405 18z"/>
<path d="M11440 17670 c11 -11 20 -26 20 -33 0 -8 9 -25 21 -38 25 -28 59 -93
59 -111 0 -7 7 -26 15 -42 17 -33 69 -183 90 -261 66 -247 66 -592 0 -840 -15
-54 -51 -167 -66 -202 -9 -24 -30 -72 -37 -85 -2 -5 0 -8 5 -8 4 0 14 15 21
33 8 17 17 41 22 52 14 32 50 146 65 200 66 249 66 615 0 860 -19 70 -64 203
-80 240 -61 138 -79 175 -85 175 -4 0 -14 18 -23 40 -9 23 -22 40 -31 40 -13
0 -12 -4 4 -20z"/>
<path d="M8460 17511 c0 -10 -9 -30 -20 -44 -11 -14 -20 -30 -20 -36 0 -6 -4
-19 -9 -29 -34 -64 -45 -101 -89 -287 -23 -101 -25 -130 -25 -345 -1 -207 2
-247 21 -335 23 -101 72 -263 98 -322 8 -17 14 -34 14 -37 0 -4 11 -23 24 -44
13 -20 29 -54 36 -74 7 -24 18 -38 28 -38 10 0 13 3 7 8 -10 6 -61 108 -98
192 -28 64 -76 223 -99 325 -19 87 -22 128 -22 325 1 205 3 235 26 335 37 158
47 195 65 235 8 19 20 46 25 60 6 14 16 37 24 51 25 48 34 79 24 79 -6 0 -10
-8 -10 -19z"/>
<path d="M6586 16515 c9 -14 20 -25 25 -25 5 0 9 -7 9 -15 0 -8 9 -19 20 -25
11 -6 18 -15 15 -20 -3 -5 4 -14 15 -20 11 -6 18 -15 15 -21 -4 -5 1 -12 9
-15 9 -3 16 -14 16 -23 0 -14 2 -14 10 -1 8 12 10 11 10 -7 0 -13 5 -23 10
-23 6 0 10 -8 10 -17 0 -15 2 -16 10 -3 8 12 10 11 10 -7 0 -13 5 -23 10 -23
6 0 10 -7 10 -15 0 -8 14 -24 30 -37 17 -12 30 -27 30 -34 0 -7 18 -28 40 -45
22 -18 40 -37 40 -43 0 -6 683 -693 1518 -1527 1004 -1004 1524 -1517 1537
-1517 13 0 518 498 1493 1472 809 809 1472 1476 1472 1482 0 6 29 36 65 68 36
31 65 63 65 69 0 7 16 25 35 40 19 15 35 33 35 38 0 6 11 20 25 31 14 11 25
25 25 31 0 7 9 18 20 25 11 7 20 18 20 26 0 8 7 17 16 20 8 3 13 10 9 15 -3 6
4 15 15 21 11 6 18 15 15 20 -3 5 4 14 15 20 11 6 18 15 15 20 -3 5 4 14 16
20 11 7 18 14 16 17 -9 8 -47 -17 -47 -31 0 -8 -7 -16 -15 -20 -8 -3 -15 -12
-15 -20 0 -7 -7 -16 -15 -20 -8 -3 -15 -12 -15 -21 0 -8 -4 -15 -10 -15 -5 0
-10 -10 -10 -22 0 -19 -2 -20 -10 -8 -8 13 -10 12 -10 -2 0 -10 -4 -18 -10
-18 -5 0 -10 -10 -10 -22 0 -19 -2 -20 -10 -8 -8 13 -10 12 -10 -3 0 -10 -7
-20 -15 -23 -8 -4 -15 -14 -15 -24 0 -11 -5 -22 -12 -26 -8 -5 -9 -2 -5 10 4
10 3 15 -3 11 -6 -3 -10 -11 -10 -17 0 -6 -18 -26 -40 -45 -22 -19 -40 -40
-40 -48 0 -7 -20 -29 -45 -49 -25 -21 -45 -45 -45 -54 0 -18 -2927 -2952
-2945 -2952 -5 0 654 665 1465 1478 l1475 1477 -1480 -1478 -1480 -1477 -1478
1478 c-812 812 -1477 1482 -1477 1488 0 7 -29 39 -65 73 -36 33 -65 65 -65 70
0 6 -16 23 -35 38 -19 15 -35 34 -35 40 0 7 -9 18 -20 25 -11 7 -20 18 -20 25
0 7 -9 18 -20 25 -11 7 -20 18 -20 25 0 7 -9 18 -20 25 -11 7 -20 19 -20 26 0
7 -7 15 -15 18 -8 4 -15 12 -15 20 0 7 -9 18 -20 24 -11 6 -19 14 -18 18 3 8
-46 62 -56 62 -3 0 1 -11 10 -25z"/>
<path d="M793 15870 c-108 -7 -215 -29 -288 -59 -11 -5 -39 -17 -62 -26 -44
-18 -110 -71 -101 -80 3 -3 18 7 33 21 39 36 86 64 108 64 9 0 25 4 35 10 168
94 911 94 1517 -1 203 -32 448 -86 685 -151 19 -5 49 -13 66 -17 18 -5 36 -11
41 -14 5 -3 45 -15 88 -27 43 -11 97 -30 121 -40 24 -11 48 -20 54 -20 6 0 35
-9 63 -21 63 -26 90 -36 120 -48 22 -8 34 -13 112 -46 22 -9 52 -23 67 -31 14
-7 34 -14 44 -14 9 0 25 -7 34 -15 23 -21 90 -47 90 -35 0 5 -7 10 -16 10 -8
0 -32 11 -52 25 -20 14 -46 25 -58 25 -12 0 -27 7 -34 15 -7 8 -17 15 -22 15
-6 0 -26 7 -46 16 -47 20 -81 35 -107 44 -11 4 -31 12 -45 17 -65 27 -107 42
-130 49 -14 3 -43 15 -66 25 -22 10 -76 28 -119 39 -43 12 -83 24 -88 27 -5 3
-23 9 -41 14 -17 4 -47 12 -66 17 -656 180 -1297 250 -1937 212z"/>
<path d="M18700 15803 c-438 -13 -998 -94 -1344 -194 -39 -11 -96 -27 -126
-36 -92 -27 -353 -114 -387 -129 -17 -8 -38 -14 -46 -14 -9 0 -19 -4 -22 -10
-3 -5 -13 -10 -21 -10 -8 0 -36 -9 -62 -21 -26 -12 -56 -25 -67 -29 -11 -5
-41 -18 -67 -29 -26 -12 -51 -21 -55 -21 -4 0 -19 -9 -33 -20 -14 -11 -32 -20
-40 -20 -24 0 -280 -130 -280 -142 0 -6 8 -4 18 5 9 8 42 25 72 36 30 12 75
35 99 51 24 17 51 30 61 30 9 0 38 11 66 24 42 21 87 41 169 76 11 4 41 17 67
29 26 12 54 21 62 21 8 0 18 5 21 10 3 6 13 10 22 10 8 0 29 6 46 14 33 15
292 101 387 129 597 174 1225 251 1860 227 234 -9 318 -21 399 -56 77 -34 106
-49 113 -59 5 -6 8 -4 8 5 0 8 -17 22 -38 31 -20 9 -53 24 -73 32 -79 36 -165
48 -399 57 -129 5 -255 8 -280 7 -25 0 -83 -2 -130 -4z"/>
<path d="M5244 15515 c14 -13 26 -31 26 -39 0 -8 9 -20 20 -26 11 -6 18 -15
15 -21 -4 -5 1 -12 9 -15 9 -3 16 -13 16 -20 0 -8 7 -17 15 -20 8 -4 15 -14
15 -23 0 -14 2 -14 10 -1 8 12 10 11 10 -7 0 -13 5 -23 10 -23 6 0 10 -7 10
-15 0 -8 9 -19 20 -25 11 -6 20 -17 20 -25 0 -8 9 -20 20 -27 11 -7 20 -18 20
-25 0 -6 11 -20 25 -31 14 -11 25 -25 25 -31 0 -6 14 -20 30 -33 17 -12 30
-27 30 -34 0 -7 20 -30 45 -51 25 -20 45 -41 45 -46 0 -4 299 -305 665 -669
366 -363 665 -665 665 -672 0 -21 2954 -2964 2975 -2964 21 0 715 683 715 704
0 6 743 751 1650 1654 908 903 1650 1650 1650 1659 0 9 52 68 115 131 63 63
115 110 115 105 0 -5 -51 -62 -112 -125 l-113 -115 118 115 c64 63 117 120
117 125 0 6 25 33 55 59 30 26 55 54 55 62 0 8 7 17 15 20 8 4 15 14 15 24 0
11 5 22 12 26 8 5 9 2 5 -10 -4 -10 -3 -15 3 -11 6 3 10 13 10 21 0 8 7 17 15
20 8 4 15 14 15 24 0 11 5 22 12 26 8 5 9 2 5 -10 -4 -10 -3 -15 3 -11 6 3 10
13 10 21 0 8 5 14 10 14 6 0 10 8 10 18 0 10 14 26 30 36 17 9 28 21 25 26 -2
4 2 13 10 20 8 7 15 20 15 29 0 14 2 14 10 1 8 -13 10 -13 10 1 0 9 7 20 16
23 8 3 13 10 9 15 -3 6 4 15 15 21 11 6 18 15 15 20 -3 5 4 14 16 20 11 7 18
14 16 17 -9 9 -47 -17 -47 -32 0 -8 -5 -15 -10 -15 -6 0 -13 -7 -16 -15 -3 -8
-21 -31 -40 -52 -19 -20 -34 -41 -34 -46 0 -5 -11 -18 -25 -29 -14 -11 -25
-24 -25 -30 0 -5 -11 -19 -25 -30 -14 -11 -25 -24 -25 -29 0 -6 -13 -22 -30
-36 -16 -13 -30 -31 -30 -38 0 -7 -7 -15 -15 -19 -8 -3 -15 -14 -15 -24 0 -11
-7 -25 -15 -32 -18 -15 -20 0 -2 20 10 12 9 12 -5 1 -10 -7 -18 -17 -18 -22 0
-4 -70 -76 -155 -160 -85 -84 -155 -158 -155 -164 0 -7 -742 -752 -1650 -1655
-907 -903 -1650 -1650 -1650 -1659 0 -17 -678 -701 -695 -701 -5 0 148 159
340 353 l350 352 -355 -352 -355 -353 -373 373 c-204 204 -372 377 -372 382 0
6 -496 505 -1102 1110 l-1103 1100 1098 -1100 c603 -605 1097 -1105 1097
-1110 0 -5 -495 485 -1100 1090 -605 605 -1100 1107 -1100 1116 0 9 -283 298
-630 643 -346 344 -630 630 -630 635 0 5 -27 34 -60 64 -33 31 -60 60 -60 65
0 5 -8 16 -17 23 -15 11 -16 11 -5 -1 17 -20 15 -35 -3 -20 -8 7 -15 21 -15
32 0 10 -7 21 -15 24 -8 4 -15 12 -15 20 0 7 -13 23 -30 36 -16 12 -30 27 -30
34 0 7 -14 22 -30 34 -17 12 -28 25 -25 30 3 5 -6 17 -20 26 -13 9 -22 20 -19
25 3 5 -2 12 -10 15 -9 3 -16 12 -16 20 0 7 -11 21 -25 30 -14 9 -22 20 -19
25 3 5 -2 12 -10 15 -9 3 -16 12 -16 20 0 7 -9 18 -20 24 -11 6 -18 15 -15 19
6 11 -40 61 -56 61 -7 0 0 -11 15 -25z"/>
<path d="M10920 15339 c0 -5 -22 -19 -50 -31 -27 -11 -50 -24 -50 -28 0 -4
-20 -15 -44 -24 -25 -9 -50 -24 -56 -32 -7 -7 -21 -14 -31 -14 -11 0 -27 -4
-37 -9 -208 -106 -601 -157 -887 -116 -132 19 -329 72 -412 110 -17 8 -38 15
-46 15 -8 0 -20 6 -26 13 -6 8 -30 22 -53 33 -24 10 -46 23 -50 28 -4 6 -9 8
-12 5 -10 -9 10 -24 74 -56 175 -86 366 -142 560 -164 117 -13 389 -7 485 10
130 25 260 62 375 108 49 20 165 78 170 85 3 4 27 16 53 27 27 12 47 27 47 36
0 8 -2 15 -5 15 -3 0 -5 -5 -5 -11z"/>
<path d="M15470 14711 c-6 -12 -15 -19 -20 -16 -5 3 -14 -4 -20 -15 -6 -11
-15 -18 -20 -15 -5 3 -14 -4 -20 -15 -6 -11 -15 -18 -21 -15 -5 4 -12 -1 -15
-9 -3 -9 -14 -16 -23 -16 -14 0 -14 -2 -1 -10 12 -8 11 -10 -7 -10 -13 0 -23
-4 -23 -10 0 -5 -7 -10 -15 -10 -8 0 -19 -9 -25 -20 -6 -11 -18 -20 -28 -20
-15 0 -15 -2 -2 -10 12 -8 11 -10 -7 -10 -13 0 -23 -4 -23 -10 0 -5 -6 -10
-14 -10 -8 0 -18 -4 -21 -10 -4 -6 1 -7 11 -3 12 4 15 3 10 -5 -4 -7 -16 -12
-27 -12 -10 0 -19 -5 -19 -10 0 -6 -11 -15 -24 -20 -14 -5 -32 -21 -42 -35 -9
-14 -22 -25 -30 -25 -7 0 -32 -22 -56 -50 -24 -27 -48 -50 -53 -50 -6 0 -33
-24 -60 -52 l-50 -53 50 48 c67 63 83 61 20 -3 -27 -27 -56 -50 -65 -50 -16 0
-4170 -4148 -4170 -4165 0 -13 4232 -4245 4246 -4245 5 0 32 -25 58 -55 26
-30 53 -55 60 -55 7 0 22 -14 35 -31 12 -16 33 -34 47 -39 13 -5 24 -14 24
-19 0 -5 11 -11 25 -13 13 -3 22 -1 19 3 -3 5 -10 9 -15 9 -6 0 -22 14 -36 30
-13 17 -30 30 -35 30 -6 0 -26 18 -45 40 -19 22 -38 40 -42 40 -3 0 -470 464
-1036 1030 -566 567 -1034 1030 -1040 1030 -5 0 -515 505 -1133 1123 l-1122
1122 2078 2078 c1142 1142 2082 2077 2088 2077 7 0 48 38 92 85 45 47 85 85
91 85 5 0 25 18 44 40 19 22 39 40 45 40 6 0 19 11 30 25 11 14 25 25 30 25 6
0 19 11 30 25 11 14 25 25 31 25 6 0 20 13 32 30 12 16 26 27 31 24 4 -3 11 2
14 10 3 9 12 16 20 16 8 0 19 9 26 20 7 11 19 20 26 20 7 0 15 7 18 15 4 8 13
15 20 15 8 0 17 7 20 15 4 8 12 15 20 15 14 0 39 38 31 47 -3 2 -10 -5 -17
-16z m-1545 -7961 c544 -544 985 -990 980 -990 -6 0 -456 446 -1000 990 -544
545 -985 990 -980 990 6 0 456 -445 1000 -990z"/>
<path d="M4653 14670 c14 -11 29 -20 34 -20 4 0 14 -9 21 -20 7 -11 18 -20 25
-20 7 0 18 -9 25 -20 7 -11 17 -20 23 -20 6 0 20 -11 31 -25 11 -14 24 -25 29
-25 6 0 22 -13 36 -30 13 -16 29 -30 34 -30 5 0 23 -16 40 -35 17 -19 36 -35
41 -35 5 0 41 -34 80 -75 38 -41 75 -75 81 -75 15 0 4187 -4171 4187 -4185 0
-13 -2652 -2665 -2665 -2665 -5 0 589 600 1320 1333 732 732 374 377 -795
-790 -1168 -1168 -2128 -2123 -2131 -2123 -4 0 -27 -22 -52 -50 -25 -27 -50
-50 -56 -50 -5 0 -23 -16 -38 -35 -15 -19 -33 -35 -40 -35 -6 0 -15 -4 -18
-10 -4 -6 1 -7 11 -3 12 4 15 3 10 -5 -4 -7 -16 -12 -27 -12 -10 0 -19 -4 -19
-10 0 -5 -6 -10 -14 -10 -8 0 -23 -11 -34 -25 -11 -14 -25 -25 -31 -25 -6 0
-16 -9 -23 -20 -7 -11 -20 -20 -28 -20 -13 0 -13 -1 0 -10 12 -8 11 -10 -6
-10 -12 0 -25 -7 -28 -16 -3 -8 -10 -12 -16 -9 -6 3 -13 -1 -16 -9 -3 -9 -13
-16 -20 -16 -8 0 -17 -7 -20 -15 -4 -8 -13 -15 -20 -15 -8 0 -17 -7 -20 -15
-4 -8 -11 -15 -16 -15 -12 0 -72 -59 -66 -66 3 -2 18 8 34 23 16 15 32 27 36
25 4 -1 12 7 18 18 6 11 15 18 20 15 5 -3 14 4 20 15 6 11 15 18 21 15 5 -4
12 1 15 9 3 9 13 16 20 16 8 0 17 7 20 15 4 8 12 15 20 15 8 0 19 9 26 20 7
11 18 20 25 20 7 0 23 16 35 35 13 19 31 35 41 35 9 0 17 5 17 10 0 6 7 10 15
10 8 0 27 16 42 35 15 19 33 35 40 35 7 0 27 18 44 40 18 22 36 40 39 40 4 0
373 367 821 815 447 448 818 815 823 815 17 0 2676 2663 2676 2680 0 20 -4171
4190 -4190 4190 -9 0 -34 18 -55 40 -49 51 -34 53 20 3 l40 -38 -40 43 c-21
23 -44 42 -50 42 -6 0 -28 20 -48 45 -21 25 -44 45 -51 45 -8 0 -26 16 -40 35
-15 19 -33 35 -40 35 -8 0 -21 11 -30 25 -9 14 -23 25 -30 25 -8 0 -21 11 -30
25 -9 14 -22 25 -29 25 -7 0 -18 9 -25 20 -7 11 -18 20 -26 20 -8 0 -17 7 -20
16 -3 8 -10 13 -15 10 -5 -3 -14 1 -21 9 -7 8 -19 15 -28 15 -10 0 -6 -7 11
-20z"/>
<path d="M165 14524 c11 -8 19 -19 18 -24 -2 -5 6 -14 18 -20 11 -6 24 -23 30
-37 5 -14 18 -27 29 -30 10 -3 26 -16 35 -29 8 -13 22 -24 30 -24 8 0 15 -5
15 -11 0 -5 17 -17 38 -26 20 -8 39 -18 42 -22 18 -22 187 -85 274 -100 37 -7
145 -8 300 -4 410 10 843 -40 1193 -138 72 -20 353 -112 402 -131 14 -6 36
-14 49 -19 29 -12 56 -23 114 -48 26 -12 52 -21 59 -21 7 0 20 -7 29 -15 23
-21 90 -47 90 -35 0 5 -8 10 -18 10 -10 0 -33 11 -52 25 -19 14 -38 25 -42 25
-5 0 -30 9 -56 21 -79 34 -96 41 -117 49 -11 4 -32 12 -46 18 -49 19 -330 111
-402 131 -91 26 -284 67 -406 86 -254 41 -354 48 -716 50 -198 1 -376 5 -395
9 -84 19 -230 77 -258 104 -7 6 -20 12 -28 12 -8 0 -24 10 -36 23 -13 12 -25
22 -28 22 -8 0 -130 128 -130 137 0 8 -34 28 -47 28 -4 0 1 -8 12 -16z"/>
<path d="M19540 14220 c0 -5 -5 -10 -11 -10 -6 0 -25 -6 -42 -14 -42 -19 -120
-42 -184 -55 -33 -7 -136 -8 -285 -4 -300 8 -565 -12 -862 -63 -84 -14 -342
-74 -411 -95 -67 -20 -281 -91 -300 -98 -11 -5 -53 -23 -94 -40 -40 -17 -79
-31 -86 -31 -7 0 -18 -6 -24 -14 -7 -8 -26 -17 -44 -20 -18 -3 -56 -21 -84
-39 -29 -18 -71 -41 -95 -51 -104 -43 -138 -60 -138 -68 0 -4 -11 -10 -25 -14
-14 -3 -25 -10 -25 -14 0 -5 -10 -12 -22 -16 -12 -3 -28 -13 -36 -20 -7 -8
-20 -14 -28 -14 -8 0 -14 -4 -14 -8 0 -5 -18 -16 -40 -25 -27 -10 -40 -21 -40
-34 1 -16 1 -17 10 -1 6 9 26 22 45 28 19 6 35 16 35 21 0 5 6 9 14 9 8 0 21
6 28 14 8 7 24 17 36 20 12 4 22 12 22 17 0 5 6 9 13 9 7 0 24 9 38 21 15 11
62 36 105 55 43 19 101 48 127 64 27 17 53 30 60 30 6 0 29 8 51 19 76 34 111
49 156 66 25 9 54 21 65 25 18 8 228 77 300 99 81 25 333 82 440 100 284 47
386 55 750 56 193 1 366 4 385 9 52 11 131 36 167 52 17 8 35 14 41 14 5 0 12
7 16 15 3 8 1 15 -4 15 -6 0 -10 -4 -10 -10z"/>
<path d="M16415 13321 c-11 -5 -35 -23 -54 -40 -18 -17 -38 -31 -45 -31 -6 0
-4 -5 4 -10 12 -8 11 -10 -7 -10 -13 0 -23 -4 -23 -10 0 -5 -7 -10 -15 -10 -8
0 -22 -11 -31 -25 -9 -14 -22 -25 -30 -25 -7 0 -23 -13 -36 -30 -12 -16 -27
-30 -34 -30 -7 0 -39 -29 -70 -65 -32 -36 -62 -65 -68 -65 -14 0 -2976 -2962
-2976 -2975 0 -14 2942 -2955 2956 -2955 6 0 41 -34 78 -75 37 -41 73 -75 81
-75 7 0 15 -7 19 -15 3 -8 14 -15 25 -15 11 0 23 -5 27 -12 5 -8 2 -9 -10 -5
-10 4 -15 3 -11 -3 3 -6 11 -10 17 -10 5 0 19 -11 30 -25 11 -14 26 -25 34
-25 8 0 14 -4 14 -10 0 -5 10 -10 23 -10 18 0 19 -2 7 -10 -13 -9 -13 -10 0
-10 8 0 21 -9 28 -20 7 -11 18 -20 26 -20 8 0 16 -7 20 -15 3 -8 10 -15 15
-15 6 0 22 -11 37 -25 15 -14 29 -23 32 -20 7 6 -51 60 -61 57 -4 -1 -10 5
-13 13 -4 8 -16 15 -28 15 -17 0 -18 2 -6 10 13 9 13 10 0 10 -8 0 -21 9 -28
20 -7 11 -18 20 -25 20 -7 0 -18 9 -25 20 -7 11 -18 20 -26 20 -8 0 -21 11
-30 25 -10 14 -28 30 -42 35 -13 5 -24 14 -24 20 0 5 -8 10 -18 10 -11 0 -27
9 -37 20 -22 25 -9 26 19 2 21 -17 21 -17 2 6 -11 12 -24 22 -31 22 -7 0 -31
23 -54 50 -23 28 -50 50 -59 50 -18 0 -2952 2928 -2952 2945 0 13 2952 2965
2965 2965 5 0 -655 -665 -1468 -1478 -812 -812 -1477 -1482 -1477 -1487 0 -6
660 -669 1468 -1475 l1467 -1465 -1464 1466 c-805 807 -1462 1472 -1460 1478
5 14 3041 3051 3050 3051 4 0 23 18 42 40 19 22 39 40 45 40 6 0 19 11 30 25
11 14 25 25 31 25 6 0 16 9 23 20 7 11 18 20 25 20 7 0 18 9 25 20 7 11 20 20
28 20 13 0 13 1 0 10 -13 8 -13 10 1 10 9 0 22 7 29 15 7 8 15 13 19 11 3 -2
15 2 26 10 21 16 4 18 -30 5z"/>
<path d="M3776 13219 c3 -5 10 -9 15 -9 6 0 22 -13 36 -30 13 -16 28 -30 32
-30 7 0 3101 -3092 3101 -3100 0 -3 -439 -444 -975 -980 -536 -536 -975 -970
-975 -965 0 5 438 449 973 985 l972 975 -977 -975 c-538 -536 -978 -979 -978
-985 0 -13 -1012 -1025 -1026 -1025 -5 0 -23 -15 -40 -32 l-29 -33 31 28 c41
36 55 35 19 -3 -16 -16 -37 -30 -47 -30 -9 0 -22 -9 -28 -20 -6 -11 -17 -20
-25 -20 -8 0 -27 -16 -42 -35 -15 -19 -34 -35 -40 -35 -7 0 -18 -9 -25 -20 -7
-11 -18 -20 -25 -20 -7 0 -18 -9 -25 -20 -7 -11 -18 -20 -25 -20 -7 0 -20 -11
-29 -25 -9 -14 -20 -22 -25 -20 -4 3 -13 -4 -19 -15 -6 -11 -15 -18 -20 -15
-10 6 -35 -34 -26 -42 3 -3 8 2 12 11 3 9 13 16 20 16 8 0 17 7 20 15 4 8 13
15 20 15 8 0 17 7 20 15 4 8 14 15 23 15 14 0 14 2 1 10 -12 8 -11 10 8 10 12
0 22 5 22 10 0 6 8 10 18 10 14 0 15 2 2 10 -12 8 -11 10 8 10 12 0 22 5 22
10 0 6 7 10 15 10 8 0 24 14 37 30 12 17 27 30 34 30 7 0 26 16 41 35 15 19
33 35 38 35 13 0 3055 3042 3055 3055 0 6 -205 215 -455 465 -250 250 -455
459 -455 465 0 13 -2102 2115 -2115 2115 -6 0 -28 20 -48 45 -21 25 -44 45
-52 45 -8 0 -18 6 -22 13 -4 8 -18 16 -31 19 -12 4 -20 2 -16 -3z m1229 -1179
c577 -577 1047 -1051 1044 -1054 -3 -3 -479 469 -1059 1049 -580 580 -1050
1055 -1045 1055 6 0 482 -472 1060 -1050z"/>
<path d="M3095 11784 c-182 -22 -390 -72 -492 -119 -17 -8 -34 -15 -37 -15 -4
0 -23 -11 -44 -24 -20 -13 -54 -30 -74 -37 -22 -8 -38 -20 -38 -29 0 -9 3 -11
8 -5 6 9 104 59 192 99 158 71 437 126 640 126 219 0 522 -64 673 -142 40 -20
67 -27 67 -18 0 6 -8 10 -19 10 -10 0 -24 7 -31 15 -7 8 -20 15 -30 15 -9 0
-19 3 -23 6 -11 11 -171 61 -262 82 -154 35 -393 51 -530 36z"/>
<path d="M16620 11684 c-172 -20 -380 -65 -455 -99 -19 -8 -52 -22 -72 -31
-91 -40 -188 -88 -191 -96 -2 -4 -10 -8 -18 -8 -8 0 -14 -8 -13 -17 0 -11 3
-13 6 -5 2 6 9 12 14 12 6 0 19 9 31 20 12 11 28 20 36 20 8 0 35 11 61 24 25
14 63 32 84 40 20 9 53 23 72 32 44 19 244 69 345 86 97 16 382 16 485 -1 142
-22 326 -74 397 -112 10 -5 26 -9 37 -9 10 0 23 -6 29 -13 6 -7 35 -24 64 -38
29 -13 59 -30 66 -36 7 -7 20 -13 28 -13 8 0 14 -4 14 -10 0 -5 11 -12 25 -16
14 -3 25 -10 25 -15 0 -5 6 -9 14 -9 8 0 17 -7 20 -16 4 -9 9 -15 11 -12 10 9
-7 38 -21 38 -8 0 -14 4 -14 9 0 5 -11 12 -25 15 -14 4 -25 11 -25 16 0 6 -6
10 -14 10 -8 0 -21 6 -28 13 -7 7 -29 19 -48 27 -19 7 -51 24 -70 37 -19 13
-40 23 -47 23 -8 0 -21 4 -31 9 -71 38 -231 84 -372 107 -85 15 -354 26 -420
18z"/>
<path d="M4708 10953 c6 -2 12 -10 12 -17 0 -7 13 -30 30 -51 16 -21 35 -56
41 -79 6 -22 17 -52 24 -66 103 -196 159 -582 125 -860 -15 -120 -66 -329 -99
-405 -5 -11 -16 -36 -25 -57 -9 -20 -16 -41 -16 -48 0 -6 -9 -23 -20 -37 -11
-14 -20 -33 -20 -42 0 -10 -9 -27 -20 -39 -11 -12 -20 -26 -20 -32 0 -5 -4
-10 -9 -10 -5 0 -15 -15 -21 -34 -6 -19 -26 -51 -45 -71 -19 -20 -35 -46 -35
-58 0 -18 -2 -19 -10 -7 -9 13 -10 13 -10 0 0 -8 -9 -21 -20 -28 -11 -7 -20
-17 -20 -22 0 -5 -33 -42 -73 -82 -40 -40 -49 -51 -20 -23 29 27 53 45 53 39
0 -16 -94 -104 -112 -104 -10 0 -22 -9 -28 -20 -6 -11 -17 -20 -25 -20 -8 0
-20 -9 -27 -20 -7 -11 -18 -20 -25 -20 -13 0 -38 -39 -30 -47 3 -2 10 5 17 16
6 12 15 19 21 16 5 -4 12 1 15 9 3 9 12 16 20 16 7 0 23 14 36 30 12 17 27 30
33 30 14 0 115 102 115 116 0 6 14 20 30 32 17 13 30 28 30 35 0 7 9 18 20 25
11 7 20 19 20 26 0 8 16 31 35 51 19 20 39 52 45 71 6 19 16 34 21 34 5 0 9 6
9 14 0 8 4 16 9 18 7 3 64 117 92 186 5 12 13 32 19 45 86 199 131 565 100
816 -17 134 -58 312 -89 390 -11 25 -22 53 -25 61 -3 8 -10 22 -15 30 -5 8
-17 37 -26 63 -9 26 -28 61 -41 76 -13 16 -24 36 -24 45 0 9 -8 16 -17 15 -11
0 -13 -3 -5 -6z"/>
<path d="M1737 10876 c-8 -9 -23 -37 -33 -63 -10 -27 -21 -52 -25 -58 -26 -36
-99 -296 -120 -430 -17 -104 -17 -388 0 -490 16 -102 66 -304 88 -352 8 -21
19 -47 24 -58 19 -50 74 -161 85 -172 7 -7 17 -28 24 -47 10 -32 36 -54 48
-41 3 3 0 5 -7 5 -6 0 -21 21 -32 48 -11 26 -27 51 -35 55 -8 4 -14 16 -14 26
0 10 -9 30 -20 44 -11 14 -20 31 -20 37 0 7 -7 28 -16 48 -9 21 -22 52 -30 71
-29 65 -82 309 -94 427 -18 167 -5 351 36 529 18 78 82 274 94 290 5 6 13 29
20 53 6 24 20 52 31 63 12 12 19 23 16 25 -3 3 -12 -2 -20 -10z"/>
<path d="M15234 10752 c-17 -37 -39 -84 -48 -104 -9 -21 -23 -53 -31 -72 -19
-44 -60 -204 -82 -321 -20 -111 -23 -415 -5 -525 17 -103 67 -302 88 -347 9
-21 19 -47 24 -58 15 -41 86 -180 98 -193 6 -7 12 -20 12 -28 0 -8 4 -14 10
-14 5 0 12 -11 16 -25 3 -14 10 -25 15 -25 5 0 9 -6 9 -14 0 -14 29 -31 38
-21 3 2 -3 7 -12 11 -9 3 -16 12 -16 20 0 8 -4 14 -9 14 -5 0 -12 11 -15 25
-4 14 -11 25 -16 25 -6 0 -10 6 -10 14 0 8 -6 21 -13 28 -6 7 -23 37 -36 66
-14 29 -31 58 -38 64 -7 6 -13 19 -13 29 0 11 -4 27 -9 37 -38 70 -87 246
-113 402 -16 97 -16 383 0 480 17 101 67 301 86 345 9 19 23 52 32 73 35 81
79 167 89 174 6 5 4 8 -5 8 -9 0 -28 -29 -46 -68z"/>
<path d="M18291 10713 c5 -14 16 -38 23 -52 58 -112 118 -334 137 -511 19
-172 1 -422 -41 -575 -31 -112 -70 -225 -92 -268 -20 -40 -27 -67 -18 -67 6 0
10 8 10 19 0 10 7 24 15 31 8 7 15 19 15 26 0 8 4 22 9 32 11 18 50 143 74
232 58 212 60 537 5 775 -21 91 -71 251 -82 262 -3 4 -6 13 -6 22 0 9 -9 27
-20 41 -11 14 -20 33 -20 43 0 9 -4 17 -10 17 -6 0 -6 -10 1 -27z"/>
<path d="M7882 7216 c-1173 -1172 -2133 -2136 -2133 -2141 1 -6 -20 -28 -45
-49 -25 -21 -49 -49 -54 -62 -5 -13 -14 -24 -20 -24 -5 0 -10 -9 -10 -19 0
-11 -5 -23 -12 -27 -8 -5 -9 -2 -5 10 4 10 3 15 -3 11 -6 -3 -10 -12 -10 -19
0 -8 -11 -21 -25 -30 -14 -9 -25 -23 -25 -30 0 -8 -11 -21 -25 -30 -14 -9 -25
-22 -25 -29 0 -7 -9 -18 -20 -25 -11 -7 -20 -18 -20 -26 0 -8 -7 -16 -15 -20
-8 -3 -14 -9 -13 -14 2 -5 -7 -18 -19 -28 -12 -11 -25 -32 -28 -49 -5 -23 -4
-26 4 -15 6 8 11 24 11 35 0 17 2 17 10 5 8 -13 10 -13 10 1 0 9 7 19 15 23 8
3 15 12 15 21 0 8 5 15 10 15 6 0 10 10 10 23 0 18 2 19 10 7 8 -13 10 -12 10
3 0 9 5 17 10 17 6 0 10 10 10 23 0 18 2 19 10 7 7 -12 10 -12 10 -1 0 7 11
22 25 33 14 11 25 24 25 29 0 6 14 22 30 36 17 13 30 31 30 38 0 7 7 15 15 19
8 3 15 14 15 24 0 11 7 25 15 32 18 15 20 0 3 -20 -11 -12 -10 -12 5 -1 9 7
17 18 17 24 0 5 29 36 65 69 36 33 65 66 65 73 0 12 4197 4205 4209 4205 4 0
508 -502 1121 -1115 613 -613 1110 -1115 1105 -1115 -5 0 -512 501 -1125 1113
l-1115 1112 1115 -1117 c613 -615 1119 -1118 1125 -1118 13 0 1965 -1952 1965
-1966 0 -5 17 -26 38 -45 l37 -34 -32 35 c-18 20 -33 42 -33 50 0 21 -4192
4210 -4210 4209 -8 -1 -975 -961 -2148 -2133z"/>
<path d="M18138 8989 c-10 -5 -18 -15 -18 -22 0 -7 -9 -18 -20 -25 -11 -7 -20
-17 -20 -23 0 -6 -11 -20 -25 -31 -14 -11 -25 -24 -25 -29 0 -13 -127 -139
-139 -139 -5 0 -21 -13 -34 -30 -14 -16 -30 -30 -36 -30 -6 0 -18 -11 -27 -25
-9 -14 -20 -23 -24 -20 -5 3 -22 -9 -39 -25 -17 -17 -44 -36 -61 -41 -16 -6
-30 -15 -30 -20 0 -5 -6 -9 -14 -9 -8 0 -21 -6 -28 -12 -13 -12 -152 -83 -193
-98 -11 -5 -36 -15 -55 -23 -50 -22 -208 -63 -320 -83 -115 -21 -399 -24 -509
-6 -99 17 -303 68 -346 87 -19 8 -52 22 -72 31 -82 35 -168 79 -175 89 -5 6
-8 4 -8 -5 0 -13 50 -41 173 -94 20 -9 53 -23 72 -31 41 -18 240 -68 345 -86
110 -19 412 -16 530 5 157 28 302 70 372 107 10 5 23 9 31 9 7 0 28 10 47 23
19 13 51 30 70 37 19 8 41 20 48 27 7 7 20 13 28 13 8 0 14 4 14 9 0 5 16 15
35 21 19 6 40 20 45 30 5 10 23 23 40 28 16 6 30 16 30 21 0 6 7 11 15 11 8 0
22 11 31 25 9 14 21 25 26 25 13 0 198 185 198 199 0 6 5 11 10 11 6 0 10 10
10 23 0 18 2 19 10 7 8 -13 10 -13 10 1 0 9 7 19 15 23 8 3 14 10 13 15 -2 5
6 17 17 25 22 17 10 21 -17 5z"/>
<path d="M4038 8570 c-9 -11 -36 -24 -60 -30 -24 -7 -54 -18 -68 -25 -73 -38
-137 -59 -295 -95 -260 -59 -550 -51 -815 21 -90 25 -177 57 -231 85 -48 25
-79 34 -79 24 0 -6 8 -10 19 -10 10 0 30 -9 44 -20 14 -11 30 -20 36 -20 6 0
19 -4 29 -9 32 -16 96 -39 172 -60 264 -72 562 -80 830 -21 156 34 174 39 315
100 22 9 59 25 82 35 23 10 44 24 47 31 7 19 -6 16 -26 -6z"/>
<path d="M8808 5776 c-665 -666 -1208 -1216 -1208 -1222 0 -6 -137 -147 -305
-313 -168 -167 -305 -309 -305 -316 0 -6 -9 -20 -20 -30 -25 -22 -26 -9 -2 19
17 21 17 21 -5 2 -13 -11 -23 -25 -23 -32 0 -7 -9 -18 -20 -24 -11 -6 -20 -19
-20 -30 0 -10 -5 -22 -12 -26 -8 -5 -9 -2 -5 10 4 10 3 15 -3 11 -6 -3 -10
-11 -10 -17 0 -5 -11 -19 -25 -30 -14 -11 -25 -25 -25 -31 0 -7 -9 -18 -20
-25 -11 -7 -20 -19 -20 -27 0 -8 -4 -15 -10 -15 -5 0 -10 -10 -10 -22 0 -19
-2 -20 -10 -8 -8 13 -10 13 -10 -1 0 -9 -7 -19 -15 -23 -8 -3 -15 -12 -15 -20
0 -7 -7 -17 -16 -20 -9 -4 -14 -9 -11 -12 8 -8 48 16 42 25 -2 5 6 16 20 25
14 9 25 23 25 30 0 8 7 17 16 20 8 3 13 10 10 15 -4 5 7 19 24 31 16 12 30 27
30 34 0 7 14 22 30 34 17 13 30 28 30 34 0 6 18 27 41 46 22 19 44 42 48 51 4
9 687 695 1518 1525 l1512 1509 1500 -1493 c826 -821 1501 -1498 1501 -1505 0
-6 15 -24 33 -41 l32 -29 -27 31 c-37 41 -36 55 2 19 17 -16 30 -37 30 -47 0
-9 9 -22 20 -28 11 -6 20 -17 20 -24 0 -8 14 -26 30 -39 17 -14 30 -30 30 -36
0 -5 4 -12 9 -15 4 -3 6 6 3 19 -2 14 -8 25 -13 25 -5 0 -14 11 -19 24 -5 14
-23 35 -39 47 -17 13 -31 28 -31 35 0 13 -3063 3064 -3076 3064 -5 0 -552
-543 -1216 -1207 -665 -665 -1208 -1203 -1208 -1198 0 16 2415 2427 2423 2419
4 -4 7 -2 7 4 0 7 -6 11 -12 10 -7 -1 -556 -546 -1220 -1212z"/>
<path d="M2864 6321 c-23 -10 -45 -24 -48 -30 -4 -6 -16 -11 -28 -11 -11 0
-32 -6 -46 -14 -15 -7 -38 -18 -52 -23 -52 -21 -76 -31 -100 -41 -40 -17 -297
-101 -380 -124 -400 -109 -789 -155 -1223 -145 -148 4 -260 2 -295 -4 -78 -15
-227 -67 -253 -90 -12 -11 -28 -19 -36 -19 -7 0 -13 -8 -12 -17 0 -11 3 -13 6
-5 2 6 11 12 18 12 8 0 22 9 32 19 17 18 154 69 233 87 19 4 195 8 390 9 387
1 512 12 800 65 161 30 224 44 350 78 83 23 340 107 380 124 14 6 36 15 50 21
14 5 33 13 42 18 10 5 24 9 32 9 7 0 19 7 26 15 7 8 22 15 34 15 12 0 37 11
56 25 19 14 42 25 52 25 10 0 18 5 18 10 0 13 3 13 -46 -9z"/>
<path d="M17080 6270 c0 -6 8 -10 18 -10 10 0 33 -11 52 -25 19 -14 38 -25 43
-25 6 0 31 -10 56 -21 25 -12 55 -25 66 -29 25 -9 60 -24 107 -44 20 -9 41
-16 48 -16 6 0 30 -9 54 -20 23 -10 76 -28 117 -40 41 -12 88 -25 104 -30 112
-33 158 -44 310 -75 325 -66 588 -88 980 -83 237 3 278 1 339 -15 38 -10 76
-22 85 -27 9 -4 43 -21 76 -37 33 -15 63 -32 67 -38 4 -6 8 -2 8 8 0 10 -7 17
-19 17 -10 0 -35 11 -55 25 -20 14 -43 25 -51 25 -8 0 -16 4 -19 9 -3 4 -38
17 -78 27 -65 17 -104 19 -348 16 -394 -5 -647 17 -975 83 -152 31 -198 42
-310 75 -16 5 -63 18 -104 30 -41 12 -94 30 -117 40 -24 11 -48 20 -54 20 -7
0 -28 7 -48 16 -47 20 -82 35 -107 44 -37 13 -120 51 -157 71 -57 30 -88 40
-88 29z"/>
<path d="M9781 4949 c-136 -18 -357 -80 -434 -120 -9 -5 -42 -19 -71 -30 -30
-11 -57 -26 -60 -34 -3 -8 -1 -15 3 -15 5 0 11 7 14 14 3 8 25 20 49 26 24 7
54 18 68 25 92 48 302 105 463 125 147 19 403 8 542 -23 141 -31 227 -56 239
-68 6 -5 16 -9 23 -9 8 0 33 -9 56 -21 67 -33 87 -40 87 -29 0 6 -8 10 -19 10
-10 0 -24 6 -30 13 -6 8 -30 19 -53 26 -24 7 -48 17 -54 22 -14 11 -104 36
-239 66 -91 20 -144 25 -310 28 -110 2 -233 -1 -274 -6z"/>
<path d="M3653 4836 c-39 -19 -74 -39 -77 -45 -4 -6 -14 -11 -23 -11 -9 0 -35
-9 -57 -19 -23 -10 -57 -26 -76 -34 -19 -8 -55 -24 -80 -34 -25 -11 -63 -26
-85 -34 -22 -7 -44 -17 -49 -21 -6 -4 -16 -8 -24 -8 -8 0 -28 -7 -45 -14 -18
-8 -93 -35 -167 -59 -124 -40 -174 -55 -255 -78 -16 -5 -52 -15 -80 -23 -178
-53 -562 -125 -836 -156 -411 -47 -1021 -47 -1204 0 -44 11 -84 25 -89 30 -6
6 -19 10 -30 10 -25 0 -71 27 -111 64 -15 14 -31 26 -36 26 -4 0 -31 24 -61
53 -29 29 -35 33 -13 10 21 -24 35 -43 29 -43 -17 0 -84 75 -84 93 0 9 -4 17
-10 17 -5 0 -10 7 -10 15 0 8 -9 19 -20 25 -11 6 -23 22 -26 35 -3 14 -13 25
-23 25 -10 0 -12 -3 -5 -8 6 -4 14 -17 18 -30 4 -12 16 -27 27 -33 11 -5 17
-14 14 -20 -4 -5 1 -12 9 -15 9 -3 16 -11 16 -18 0 -15 82 -96 97 -96 6 0 14
-7 17 -16 3 -8 10 -13 14 -10 5 3 23 -7 41 -23 17 -15 50 -36 74 -46 23 -10
56 -24 72 -31 170 -73 834 -82 1355 -18 247 30 624 102 780 148 25 8 65 19 90
26 78 22 102 29 245 76 77 25 154 52 172 60 17 7 37 14 45 14 8 0 18 4 24 8 5
5 32 17 59 27 28 9 66 24 85 32 19 9 51 22 70 30 19 8 43 19 54 24 10 6 35 17
55 24 20 7 63 29 95 49 33 20 68 36 78 36 10 0 18 5 18 10 0 13 4 15 -77 -24z"/>
<path d="M16370 4750 c0 -5 7 -10 16 -10 8 0 32 -11 52 -25 20 -14 41 -25 45
-25 5 0 23 -6 40 -14 28 -13 55 -24 157 -68 14 -6 32 -14 40 -18 9 -4 30 -11
48 -14 17 -4 34 -12 37 -17 4 -5 13 -9 22 -9 8 0 29 -7 46 -15 33 -15 211 -75
302 -101 28 -8 64 -19 80 -24 17 -4 93 -24 170 -44 566 -142 1079 -196 1700
-176 223 7 246 10 320 35 44 14 87 33 96 41 9 8 36 21 62 30 25 8 57 26 72 40
14 13 29 24 33 24 12 0 102 94 102 107 0 6 10 18 23 26 12 9 17 16 11 16 -18
1 -62 -38 -76 -67 -7 -14 -23 -32 -36 -38 -29 -14 -42 -27 -18 -18 14 5 17 4
12 -4 -4 -7 -15 -12 -26 -12 -10 0 -20 -6 -23 -13 -6 -17 -182 -104 -262 -130
-122 -39 -774 -40 -1140 -2 -325 34 -716 110 -1010 195 -16 5 -52 16 -80 24
-91 26 -269 86 -302 101 -17 8 -38 15 -46 15 -9 0 -19 5 -22 10 -3 6 -13 10
-22 10 -8 0 -31 7 -51 16 -21 9 -46 20 -57 24 -69 29 -124 53 -152 66 -17 8
-37 14 -44 14 -7 0 -20 7 -29 15 -23 21 -90 47 -90 35z"/>
<path d="M8480 4003 c0 -10 -9 -29 -20 -43 -11 -14 -20 -31 -20 -38 0 -7 -4
-20 -9 -30 -90 -175 -143 -572 -111 -843 18 -155 76 -376 121 -462 5 -9 19
-42 30 -71 11 -30 26 -57 34 -60 8 -3 15 -1 15 3 0 5 -7 11 -14 14 -8 3 -20
25 -26 49 -7 24 -18 54 -25 68 -48 92 -105 302 -125 463 -18 139 -8 394 19
522 34 159 73 282 117 366 25 48 34 79 24 79 -6 0 -10 -8 -10 -17z"/>
<path d="M11552 3973 c65 -135 79 -176 125 -378 34 -151 43 -411 19 -572 -21
-140 -61 -299 -95 -378 -5 -11 -16 -36 -25 -57 -9 -20 -16 -41 -16 -47 0 -19
-40 -91 -50 -91 -6 0 -10 -4 -10 -10 0 -5 6 -7 14 -4 13 5 30 39 97 199 36 84
74 239 95 378 13 87 15 154 11 297 -6 181 -15 248 -67 449 -18 74 -80 221 -93
221 -5 0 -7 -3 -5 -7z"/>
<path d="M4913 3902 c-6 -4 -25 -41 -42 -83 -17 -42 -54 -115 -82 -163 -27
-48 -52 -101 -56 -117 -3 -16 -12 -34 -19 -40 -8 -6 -14 -16 -14 -21 0 -5 -9
-30 -21 -56 -33 -76 -41 -96 -52 -122 -5 -14 -13 -33 -18 -42 -5 -10 -9 -23
-9 -30 0 -7 -7 -26 -15 -41 -8 -16 -20 -47 -26 -70 -6 -23 -19 -61 -30 -83
-10 -23 -23 -62 -29 -88 -5 -25 -16 -63 -24 -83 -56 -145 -155 -581 -195 -859
-49 -335 -55 -439 -55 -889 l-1 -430 28 -85 c36 -107 50 -140 60 -140 5 0 7 3
5 8 -21 43 -31 69 -55 142 l-28 85 0 425 c1 455 8 567 61 910 42 275 137 685
190 823 8 20 19 58 24 83 6 26 19 65 30 88 10 23 24 63 31 89 6 26 15 50 20
53 5 3 9 12 9 21 0 8 7 31 16 51 9 21 20 47 25 60 23 57 67 160 90 208 10 22
19 48 19 57 0 9 5 19 11 22 6 4 42 71 80 149 38 77 74 147 80 154 13 16 8 24
-8 14z"/>
<path d="M15150 3861 c0 -5 7 -11 15 -15 8 -3 15 -12 15 -21 0 -19 66 -151 91
-184 11 -13 19 -31 19 -40 0 -10 11 -39 24 -67 22 -44 54 -116 75 -169 5 -11
14 -33 21 -50 7 -16 16 -39 20 -50 5 -11 15 -36 24 -57 9 -20 16 -41 16 -48 0
-7 7 -26 14 -43 17 -36 84 -240 110 -332 10 -33 23 -80 31 -105 71 -237 145
-644 182 -1000 22 -211 25 -931 4 -1020 -23 -101 -78 -235 -108 -268 -7 -7
-13 -19 -13 -27 0 -7 -7 -15 -15 -19 -8 -3 -15 -10 -15 -15 0 -6 -19 -29 -43
-53 -24 -24 -30 -32 -15 -19 15 14 28 20 28 15 0 -15 -44 -54 -61 -54 -8 0
-20 -9 -27 -20 -7 -12 -17 -18 -22 -15 -10 6 -35 -34 -26 -42 3 -3 8 2 12 11
3 9 12 16 20 16 8 0 19 9 26 20 7 11 17 20 22 20 15 0 66 52 66 67 0 7 9 17
20 23 11 6 18 15 15 21 -4 5 0 12 8 15 9 3 18 16 21 30 4 13 11 24 16 24 6 0
10 8 10 19 0 10 10 33 23 52 21 33 45 98 67 184 16 66 24 610 11 825 -26 429
-102 905 -196 1220 -8 25 -21 72 -31 105 -26 92 -93 296 -110 332 -7 17 -14
36 -14 43 0 7 -7 28 -16 48 -17 39 -30 70 -47 112 -20 51 -26 66 -46 112 -12
26 -21 51 -21 55 0 4 -9 19 -20 33 -11 14 -20 31 -20 39 0 23 -134 289 -147
295 -7 3 -13 1 -13 -3z"/>
<path d="M6353 3032 c-15 -9 -83 -151 -83 -173 0 -9 -7 -22 -15 -29 -8 -6 -17
-22 -21 -33 -3 -12 -13 -38 -21 -57 -16 -37 -27 -65 -42 -102 -4 -13 -13 -34
-19 -48 -9 -22 -85 -249 -111 -335 -36 -115 -91 -382 -115 -550 -33 -236 -40
-354 -39 -660 1 -172 -3 -330 -8 -355 -18 -84 -62 -215 -76 -226 -17 -15 -17
-25 2 -18 8 3 31 56 52 118 l37 111 2 345 c1 463 29 712 120 1090 29 119 28
116 90 305 45 139 50 153 74 210 7 17 17 40 21 53 18 46 28 69 58 133 17 36
31 71 31 78 0 20 59 129 72 134 7 2 11 7 8 10 -3 3 -11 3 -17 -1z"/>
<path d="M13779 2858 c5 -13 16 -36 24 -53 13 -28 24 -52 57 -130 7 -16 16
-38 21 -47 5 -10 9 -23 9 -29 0 -6 6 -25 14 -42 15 -33 73 -206 96 -287 7 -25
19 -63 25 -85 24 -74 84 -388 107 -550 19 -139 22 -210 24 -540 2 -351 3 -386
23 -464 12 -47 28 -92 36 -101 8 -9 15 -24 15 -33 0 -9 4 -17 10 -17 10 0 -4
46 -21 66 -5 6 -19 49 -31 95 -20 78 -21 104 -19 379 2 309 -7 472 -40 705
-20 136 -82 445 -99 489 -4 11 -14 41 -20 66 -21 74 -80 253 -96 287 -8 17
-14 36 -14 42 0 6 -4 19 -9 29 -5 9 -14 31 -21 47 -7 17 -19 42 -26 57 -8 14
-14 33 -14 41 0 8 -9 26 -20 40 -11 14 -20 32 -20 41 0 9 -4 16 -10 16 -6 0
-6 -9 -1 -22z"/>
<path d="M8655 2225 c3 -16 17 -39 30 -50 14 -12 25 -26 25 -32 0 -7 4 -15 10
-18 6 -4 7 1 3 11 -4 12 -3 15 5 10 7 -4 12 -13 12 -20 0 -16 163 -186 178
-186 7 0 12 -4 12 -10 0 -5 10 -10 23 -10 18 0 19 -2 7 -10 -13 -8 -13 -10 1
-10 9 0 20 -7 23 -16 3 -8 10 -13 15 -9 6 3 15 -3 20 -13 6 -11 40 -34 77 -52
36 -18 71 -38 78 -44 13 -12 116 -64 181 -91 22 -9 55 -23 73 -31 18 -8 50
-18 70 -23 20 -6 55 -15 77 -21 170 -45 489 -65 667 -41 147 20 346 73 420
112 10 5 23 9 31 9 7 0 28 11 47 24 19 12 52 29 72 36 34 13 60 40 38 40 -6 0
-10 -4 -10 -8 0 -4 -15 -14 -34 -20 -19 -7 -50 -24 -70 -37 -21 -14 -43 -25
-52 -25 -8 0 -22 -4 -32 -9 -68 -36 -215 -78 -376 -106 -182 -31 -496 -17
-676 32 -30 8 -72 19 -92 24 -20 5 -52 15 -70 23 -18 8 -51 22 -73 31 -65 27
-168 79 -181 91 -7 6 -42 26 -78 44 -37 18 -71 41 -77 51 -5 11 -15 19 -22 19
-7 0 -18 9 -25 20 -7 11 -17 20 -23 20 -6 0 -20 11 -31 25 -11 14 -24 25 -29
25 -11 0 -149 139 -149 150 0 5 -13 20 -30 33 -16 14 -30 32 -30 39 0 9 -3 9
-10 -2 -8 -12 -10 -12 -10 5 0 11 -5 27 -11 35 -8 11 -9 8 -4 -15z"/>
</g>
</svg>
