<svg width="100" height="100" xmlns="http://www.w3.org/2000/svg"><path d="M246 20 245 21 243 21 242 22 241 22 241 23 240 24 241 25 241 27 242 28 242 29 243 29 244 30 244 31 245 31 246 32 247 32 248 31 249 31 250 30 251 30 252 29 253 30 253 31 259 37 259 38 260 39 261 39 267 45 268 45 270 47 269 48 268 48 268 49 267 50 267 51 268 52 267 53 267 54 265 56 262 53 262 52 259 49 259 48 258 47 257 47 256 46 254 46 252 44 251 44 250 43 249 44 248 43 247 44 246 44 246 45 245 46 244 45 244 44 243 44 242 43 241 43 240 44 239 44 238 45 238 46 237 47 238 48 238 49 239 50 239 51 240 52 240 53 241 53 242 54 243 53 244 53 245 52 246 52 248 54 248 55 249 55 250 56 251 56 252 55 254 55 255 56 255 57 256 58 256 59 257 60 257 61 258 62 258 63 259 64 259 65 261 67 262 67 263 68 264 67 265 67 267 65 268 65 268 64 269 63 268 62 268 61 267 60 267 59 268 58 269 58 270 59 271 59 273 61 273 62 275 64 275 65 278 68 279 68 280 69 279 70 277 70 276 69 275 70 274 70 274 71 273 72 272 71 271 72 270 72 270 73 269 74 270 75 270 76 272 78 272 79 273 79 274 80 277 80 278 81 277 82 277 83 278 84 278 85 285 92 286 92 287 93 288 92 289 92 290 93 289 94 290 95 289 96 288 96 287 95 286 96 285 96 285 97 284 98 285 99 285 100 287 102 287 103 288 104 289 104 292 107 293 107 294 108 294 109 296 111 296 113 295 114 296 115 296 116 297 116 298 117 302 117 303 118 304 118 305 117 306 117 307 116 307 115 308 114 307 113 307 112 306 112 305 111 304 111 303 110 303 109 300 106 300 105 301 104 302 104 302 103 303 102 302 101 302 100 294 92 293 92 292 91 295 88 296 88 298 90 298 91 299 92 299 93 300 94 301 94 306 99 306 100 307 101 307 102 308 102 309 103 310 103 312 105 313 105 314 106 315 106 316 105 317 105 317 104 318 103 317 102 317 101 304 88 304 87 300 83 301 82 301 80 302 79 303 80 304 80 307 83 308 83 309 84 310 84 311 85 311 86 312 87 312 88 313 89 313 90 314 91 315 91 317 93 317 94 319 96 320 96 321 97 322 96 323 96 323 95 324 94 323 93 323 92 322 91 322 90 320 88 320 86 321 85 322 85 322 84 323 83 325 85 326 85 327 86 328 85 329 85 329 84 330 83 329 82 329 81 328 80 328 79 326 77 326 76 325 75 326 74 327 74 328 75 329 75 332 78 333 78 334 79 335 79 336 78 337 78 337 77 338 76 344 82 344 83 345 84 345 85 346 86 346 87 347 88 348 88 349 89 349 90 348 91 347 91 347 92 346 93 345 92 344 92 343 91 342 92 340 90 339 90 338 89 337 90 336 90 336 91 335 92 336 93 336 95 337 96 337 97 338 98 338 99 339 100 340 100 342 102 341 103 342 104 342 105 341 106 340 106 339 105 338 106 337 106 337 107 336 108 337 109 337 110 336 111 337 112 337 114 336 115 335 115 335 116 334 117 335 118 335 119 341 125 340 126 339 126 338 125 337 126 336 126 336 127 335 128 329 122 329 121 330 120 331 120 331 119 332 118 331 117 331 116 328 113 328 112 325 109 324 109 323 108 322 109 321 109 321 110 320 111 321 112 321 113 323 115 323 116 326 119 326 120 325 121 324 121 324 122 323 123 323 124 324 125 324 126 327 129 328 129 329 130 329 131 332 134 330 136 329 135 328 135 327 134 326 135 325 135 320 130 321 129 320 128 320 127 319 127 318 126 317 127 316 126 315 127 314 127 314 128 313 129 314 130 313 131 314 132 314 133 319 138 320 138 321 139 322 139 323 138 324 138 326 140 326 141 327 141 328 142 329 142 331 144 331 145 332 145 333 146 334 146 335 145 336 145 336 144 337 143 337 141 338 140 337 139 337 138 336 137 335 137 334 136 336 134 337 134 337 133 338 132 339 132 341 134 342 134 344 136 345 136 346 137 347 137 348 138 349 137 350 137 350 136 351 135 352 135 353 136 353 137 354 138 354 139 355 139 356 140 357 139 358 139 359 138 359 137 360 136 360 135 359 134 359 133 358 132 358 131 357 130 357 128 356 127 356 125 355 124 355 123 354 123 353 122 353 121 352 120 352 119 353 118 354 118 355 119 356 118 357 118 357 117 358 116 358 115 357 114 358 113 359 113 359 112 360 111 360 109 359 108 359 107 358 107 356 105 357 104 359 104 360 103 362 103 363 104 367 104 368 105 368 106 367 107 366 107 365 106 364 107 363 107 363 108 362 109 363 110 363 111 365 113 363 115 362 115 362 116 361 117 362 118 362 119 370 127 369 128 368 128 367 129 366 129 366 130 365 131 366 132 366 133 367 134 368 134 370 136 371 136 372 137 373 137 374 138 374 139 373 140 373 141 372 142 371 142 370 141 369 142 368 142 368 143 367 144 367 146 366 147 366 148 367 149 367 150 368 150 371 153 372 153 378 159 379 159 380 160 381 159 382 159 382 158 383 157 383 156 382 155 382 154 381 153 381 152 382 151 381 150 382 149 383 149 383 148 384 147 383 146 383 145 378 140 378 139 377 139 376 138 377 137 377 136 378 135 377 134 377 133 378 132 379 133 380 133 381 134 382 133 383 134 383 135 384 135 385 136 384 137 385 138 385 139 386 139 387 140 388 140 389 141 389 142 390 143 390 144 392 146 392 153 393 154 392 155 392 156 391 157 390 157 390 158 389 159 390 160 390 162 389 163 388 162 387 163 386 163 386 164 385 165 386 166 386 167 387 168 386 169 387 170 387 171 388 171 389 172 390 172 391 171 392 171 393 170 394 170 394 169 396 167 397 168 397 169 398 170 398 171 399 172 399 173 400 174 400 175 399 176 400 177 400 179 399 180 400 181 400 182 401 183 401 184 400 185 399 184 398 184 397 183 395 183 394 184 391 181 392 180 392 179 391 178 391 177 388 174 387 174 386 173 385 174 383 172 382 172 380 170 379 170 378 169 377 169 376 170 374 170 373 171 372 171 372 172 371 173 370 173 369 174 368 173 368 172 366 170 366 169 365 168 365 167 364 167 363 166 362 167 361 167 361 168 360 169 360 171 361 172 361 173 362 174 362 175 361 176 360 176 359 175 358 175 357 176 356 176 356 177 355 178 356 179 356 180 358 182 358 184 359 185 359 186 361 188 361 189 362 190 362 195 363 196 363 197 364 198 364 199 365 200 365 202 366 203 366 204 367 205 367 206 369 208 369 209 370 210 370 213 371 214 371 215 372 216 372 217 374 219 374 220 375 221 375 222 376 223 376 225 377 226 377 227 378 228 378 229 379 230 379 231 380 232 380 233 382 235 382 237 383 238 383 239 384 239 385 240 386 239 387 239 387 238 388 237 388 236 389 235 390 236 390 237 391 238 392 238 393 239 394 238 395 238 395 237 396 236 396 235 395 234 395 233 394 232 394 231 393 230 393 228 392 227 392 226 391 226 390 225 389 226 388 226 388 227 387 228 387 229 386 230 383 227 383 225 382 224 382 223 381 222 381 221 380 220 380 218 379 217 379 216 377 214 377 213 376 212 376 209 375 208 375 207 373 205 373 204 371 202 371 200 370 199 370 197 369 196 369 195 368 194 368 190 367 189 367 188 368 187 370 189 370 190 371 191 371 192 372 193 372 195 373 196 373 197 375 199 376 199 377 200 378 199 379 199 379 198 380 197 379 196 379 195 378 194 378 191 379 190 380 190 380 189 381 188 380 187 380 186 379 186 375 182 377 180 378 181 378 182 379 182 382 185 382 186 384 188 384 189 385 190 386 190 387 191 387 192 386 193 385 193 385 194 384 195 385 196 385 197 387 199 387 200 388 200 389 201 389 202 391 204 391 205 390 206 391 207 391 208 392 209 392 210 393 211 393 212 395 214 395 215 396 216 396 217 397 218 398 218 399 219 399 220 400 221 401 221 403 223 403 224 404 225 404 226 411 233 411 234 412 234 413 235 414 235 415 236 420 236 421 235 422 235 423 234 424 234 424 233 425 232 425 230 426 229 429 232 429 233 430 234 429 235 430 236 430 237 432 239 432 241 433 242 433 246 432 247 432 249 431 250 430 250 430 251 429 252 429 263 428 264 428 267 427 268 427 269 426 270 426 271 425 272 425 273 423 275 422 275 421 276 420 276 420 277 419 278 420 279 420 280 421 280 422 281 424 281 425 282 426 282 428 284 428 286 429 287 429 290 430 291 430 294 429 295 430 296 430 298 429 299 429 300 428 301 428 302 427 303 427 304 425 306 424 306 423 307 422 307 419 310 419 311 416 314 415 314 414 315 413 315 412 316 411 316 410 317 409 317 407 315 407 314 405 312 404 312 403 311 402 311 401 310 401 307 403 305 403 304 404 303 404 300 403 299 403 298 402 297 404 295 405 295 406 294 407 295 408 295 409 296 410 295 411 295 412 294 412 293 414 291 415 292 415 293 414 294 414 295 415 296 415 297 416 297 417 298 418 297 419 297 419 296 420 295 420 294 421 293 421 291 420 290 420 289 419 288 419 287 418 287 417 286 415 286 414 285 412 285 411 286 410 286 409 287 406 287 405 288 404 288 403 289 402 289 401 290 399 288 399 285 400 284 406 284 407 283 408 283 408 282 409 281 409 279 408 278 408 277 407 277 406 276 406 275 407 274 408 274 408 273 409 272 408 271 408 268 407 267 407 266 406 265 406 264 407 263 407 262 408 261 407 260 407 259 406 258 406 256 407 255 410 258 410 259 411 259 412 260 413 259 414 259 414 258 416 256 416 255 417 254 417 253 416 252 416 251 417 250 416 249 416 248 415 248 414 247 413 247 412 248 411 247 409 247 408 248 407 248 406 247 407 246 406 245 406 244 405 244 404 243 404 242 403 242 402 241 401 242 399 242 398 243 397 243 397 244 396 245 395 245 395 246 394 247 394 248 395 249 395 252 393 254 392 253 391 254 390 254 390 255 389 256 390 257 390 258 391 259 390 260 390 261 389 262 389 263 390 264 390 265 389 266 390 267 390 268 389 269 389 275 390 276 390 278 389 279 390 280 389 281 390 282 390 285 391 286 391 287 392 288 391 289 391 296 390 297 390 298 391 299 390 300 386 300 385 301 384 301 383 300 382 300 381 299 380 300 379 300 379 301 378 302 378 303 379 304 379 305 380 305 381 306 381 307 380 308 379 308 379 309 378 310 379 311 379 312 380 312 381 313 387 313 388 312 389 312 390 313 390 314 389 315 389 316 388 317 389 318 389 319 390 320 390 322 391 323 391 324 392 324 393 325 394 324 395 324 395 323 396 322 396 320 397 319 400 322 400 323 401 324 401 325 400 326 400 329 401 330 401 331 402 332 402 333 403 334 403 335 404 336 404 337 405 337 406 338 407 338 408 337 409 337 409 336 410 335 409 334 409 333 408 332 408 331 407 330 407 329 406 328 407 327 408 327 408 326 412 322 413 322 414 321 415 321 416 320 417 320 418 319 419 319 420 318 421 318 423 316 423 315 427 311 428 311 429 310 430 310 431 309 431 308 432 307 432 306 433 305 433 304 434 303 434 302 435 301 435 299 436 298 436 296 435 295 436 294 436 291 435 290 435 287 434 286 434 283 433 282 433 280 432 279 433 278 433 277 435 275 435 274 436 273 436 272 435 271 435 270 434 270 433 269 433 268 434 267 434 264 435 263 435 258 437 256 438 256 438 255 439 254 438 253 438 247 439 246 439 242 438 241 438 239 437 238 437 235 436 234 436 233 435 232 435 231 434 230 434 228 433 227 433 226 432 226 430 224 429 224 428 223 424 223 423 222 422 222 421 221 420 221 419 220 418 220 417 219 416 219 415 220 414 220 412 218 411 218 399 206 399 205 397 203 397 201 398 200 397 199 399 197 400 197 401 196 403 198 403 199 406 202 407 202 408 203 411 203 412 202 413 202 413 201 414 200 413 199 413 198 412 198 411 197 411 196 412 195 411 194 411 193 410 193 409 192 408 192 407 193 405 191 404 191 401 188 401 187 400 186 400 185 401 184 402 184 403 185 404 185 408 189 409 189 410 190 411 190 412 191 413 191 414 190 415 190 415 189 416 188 416 187 417 186 417 185 418 184 417 183 417 181 416 180 416 179 415 178 415 175 414 174 414 172 413 171 413 165 412 164 412 161 411 160 411 156 410 155 410 152 409 151 409 148 408 147 408 145 407 144 407 143 406 142 406 141 405 140 405 139 404 138 404 136 403 135 403 133 402 132 402 131 401 130 401 128 400 127 400 126 399 125 399 124 398 123 398 121 397 120 397 119 396 118 396 115 395 114 395 113 393 111 393 110 392 109 392 108 390 106 390 105 389 104 388 104 384 100 384 99 383 98 383 97 381 95 381 94 380 94 379 93 377 93 376 92 375 93 374 93 374 94 373 95 374 96 374 97 376 99 375 100 374 100 372 98 372 97 371 96 371 95 370 94 369 94 368 93 367 94 366 94 366 95 365 96 364 96 363 95 363 94 362 94 361 93 360 93 358 91 358 90 357 89 357 88 355 86 354 86 350 82 350 81 349 80 349 79 348 78 348 77 340 69 339 69 338 68 338 67 337 66 337 65 336 65 335 64 334 64 333 63 333 62 332 62 331 61 330 61 329 60 329 59 328 59 325 56 325 55 319 49 318 49 317 48 316 49 315 49 314 50 313 50 312 51 312 52 311 53 311 54 312 55 312 56 313 56 315 58 314 59 314 60 313 61 313 63 312 64 313 65 313 66 316 69 316 70 315 71 316 72 316 73 317 74 316 75 315 75 314 74 313 74 312 73 309 73 308 72 307 72 304 69 305 68 306 68 307 67 308 67 308 66 309 65 308 64 308 62 309 61 308 60 308 59 305 56 305 55 302 52 301 52 300 51 301 50 301 49 302 48 301 47 301 46 299 44 298 44 297 43 297 42 295 40 294 40 293 39 291 39 290 38 289 38 288 37 286 37 285 36 284 36 283 37 282 37 281 38 280 37 279 38 278 38 278 39 277 40 275 40 274 39 273 40 272 40 271 39 270 39 269 38 269 36 270 35 270 34 269 33 269 32 267 30 266 30 263 27 262 27 261 26 259 26 258 25 257 25 256 26 254 26 253 25 253 24 252 24 250 22 249 22 248 21 247 21 "/></svg>